<svg width="24" height="24" viewBox="0 0 24 24" fill="none" xmlns="http://www.w3.org/2000/svg">
<path d="M12.0002 22C17.5231 22 22.0002 17.5228 22.0002 12C22.0002 6.47715 17.5231 2 12.0002 2C6.4774 2 2.00024 6.47715 2.00024 12C2.00024 13.6449 2.3974 15.197 3.10104 16.5658C3.15135 16.5976 3.20303 16.6291 3.25606 16.6602C4.29478 17.2699 5.69008 17.625 7.00024 17.625H7.03932C5.48228 16.2507 4.50024 14.24 4.50024 12C4.50024 7.85786 7.85811 4.5 12.0002 4.5C16.1424 4.5 19.5002 7.85786 19.5002 12C19.5002 16.1421 16.1424 19.5 12.0002 19.5H7.00024C6.40748 19.5 5.79794 19.442 5.19654 19.3287C6.98125 20.9864 9.37237 22 12.0002 22Z" fill="#0050AE"/>
<path fill-rule="evenodd" clip-rule="evenodd" d="M12.0002 7C12.5525 7 13.0002 7.44772 13.0002 8V11.5858L15.7074 14.2929C16.0979 14.6834 16.0979 15.3166 15.7074 15.7071C15.3168 16.0976 14.6837 16.0976 14.2931 15.7071L11.0002 12.4142V8C11.0002 7.44772 11.448 7 12.0002 7Z" fill="#0050AE"/>
</svg>
