<svg width="33" height="33" viewBox="0 0 33 33" fill="none" xmlns="http://www.w3.org/2000/svg">
<path d="M30.8 25.5H29.8V18.5C29.8 17.9696 29.5893 17.4609 29.2143 17.0858C28.8392 16.7107 28.3305 16.5 27.8 16.5H22.8V7.5C22.8 6.96957 22.5893 6.46086 22.2143 6.08579C21.8392 5.71071 21.3305 5.5 20.8 5.5H12.8C12.2696 5.5 11.7609 5.71071 11.3858 6.08579C11.0108 6.46086 10.8 6.96957 10.8 7.5V11.5H5.80005C5.26962 11.5 4.76091 11.7107 4.38584 12.0858C4.01076 12.4609 3.80005 12.9696 3.80005 13.5V25.5H2.80005C2.53483 25.5 2.28048 25.6054 2.09294 25.7929C1.90541 25.9804 1.80005 26.2348 1.80005 26.5C1.80005 26.7652 1.90541 27.0196 2.09294 27.2071C2.28048 27.3946 2.53483 27.5 2.80005 27.5H30.8C31.0653 27.5 31.3196 27.3946 31.5072 27.2071C31.6947 27.0196 31.8 26.7652 31.8 26.5C31.8 26.2348 31.6947 25.9804 31.5072 25.7929C31.3196 25.6054 31.0653 25.5 30.8 25.5ZM10.8 25.5H5.80005V13.5H10.8V25.5ZM27.8 25.5H22.8V18.5H27.8V25.5Z" fill="#181C21"/>
</svg>
