<svg width="32" height="32" viewBox="0 0 32 32" fill="none" xmlns="http://www.w3.org/2000/svg">
<circle cx="16" cy="16" r="16" fill="#FFA699"/>
<circle cx="16" cy="16.0001" r="13.3333" fill="#ED0226"/>
<path fill-rule="evenodd" clip-rule="evenodd" d="M10 16C10 12.6863 12.6863 10 16 10C19.3137 10 22 12.6863 22 16C22 19.3137 19.3137 22 16 22C15.9553 22 15.625 21.9828 15.625 22C14.4637 22 13.2905 22.0238 12.1387 21.8511C11.7784 21.797 11.4206 21.724 11.0412 21.6269C12.3631 22.7927 14.0989 23.5 16 23.5C20.1421 23.5 23.5 20.1421 23.5 16C23.5 11.8579 20.1421 8.5 16 8.5C11.8579 8.5 8.5 11.8579 8.5 16C8.5 17.2677 8.81452 18.4619 9.36978 19.5089C10.398 19.889 11.1257 20.1181 11.7743 20.2596C10.6786 19.1725 10 17.6655 10 16Z" fill="white"/>
<path fill-rule="evenodd" clip-rule="evenodd" d="M14.5 14.2349V17.6488L17.4872 15.7866L14.5 14.2349ZM13 13.6175C13 12.7736 13.8947 12.2301 14.6436 12.6191L18.7622 14.7587C19.5354 15.1604 19.5782 16.2507 18.8387 16.7117L14.7201 19.2791C13.9708 19.7463 13 19.2075 13 18.3244V13.6175Z" fill="white"/>
</svg>
