<svg width="46" height="46" viewBox="0 0 46 46" fill="none" xmlns="http://www.w3.org/2000/svg">
<g clip-path="url(#clip0_1_755)">
<path d="M17.7465 14.6981L17.7465 14.6981L34.8039 18.9617C37.6028 19.6621 37.9706 23.4898 35.3579 24.7107C35.3579 24.7107 35.3579 24.7107 35.3579 24.7107L19.4279 32.1521L19.4278 32.1521C16.9791 33.296 14.3564 30.9392 15.2328 28.3823C15.2328 28.3821 15.2328 28.382 15.2329 28.3819L16.5266 24.6141L16.5267 24.6138C16.637 24.2922 16.6773 23.9507 16.6446 23.6122L15.6282 23.7101L16.6446 23.6122C16.612 23.2738 16.5074 22.9462 16.3377 22.6516L16.3376 22.6514L14.3493 19.2004L14.3492 19.2002C12.9992 16.8581 15.1241 14.0425 17.7465 14.6981Z" fill="#ED0226" stroke="white" stroke-width="2"/>
</g>
<defs>
<clipPath id="clip0_1_755">
<rect width="32" height="32" fill="white" transform="translate(20.7844) scale(1.02117) rotate(39.4976)"/>
</clipPath>
</defs>
</svg>
