<svg width="33" height="32" viewBox="0 0 33 32" fill="none" xmlns="http://www.w3.org/2000/svg">
<path d="M27.4667 9.33329H26.5334C26.8387 8.71063 26.9987 8.02663 27.0014 7.33329C27.0014 6.09562 26.5097 4.90863 25.6346 4.03346C24.7594 3.15829 23.5724 2.66663 22.3347 2.66663C20.0454 2.66663 18.0481 4.26663 16.5601 5.97463C14.6667 3.78929 12.7321 2.66663 10.8001 2.66663C9.56239 2.66663 8.37541 3.15829 7.50024 4.03346C6.62507 4.90863 6.1334 6.09562 6.1334 7.33329C6.1374 8.02663 6.2974 8.71063 6.6014 9.33329H6.1334C5.42616 9.33329 4.74788 9.61424 4.24778 10.1143C3.74769 10.6144 3.46674 11.2927 3.46674 12V14.6666C3.46674 15.0202 3.60721 15.3594 3.85726 15.6094C4.10731 15.8595 4.44645 16 4.80007 16H28.8001C29.1537 16 29.4928 15.8595 29.7429 15.6094C29.9929 15.3594 30.1334 15.0202 30.1334 14.6666V12C30.1334 11.2927 29.8524 10.6144 29.3524 10.1143C28.8523 9.61424 28.174 9.33329 27.4667 9.33329ZM14.2107 9.33329H10.8001C10.2696 9.33329 9.76093 9.12258 9.38586 8.74751C9.01078 8.37243 8.80007 7.86373 8.80007 7.33329C8.80007 6.80286 9.01078 6.29415 9.38586 5.91908C9.76093 5.54401 10.2696 5.33329 10.8001 5.33329C12.0001 5.33329 13.4667 6.33863 14.9227 8.16263C14.6307 8.61196 14.4001 9.00929 14.2107 9.33329ZM22.3441 9.33329H17.3547C18.5987 7.50929 20.5161 5.33329 22.3401 5.33329C22.8705 5.33329 23.3792 5.54401 23.7543 5.91908C24.1294 6.29415 24.3401 6.80286 24.3401 7.33329C24.3401 7.86373 24.1294 8.37243 23.7543 8.74751C23.3792 9.12258 22.8705 9.33329 22.3401 9.33329H22.3441ZM18.1334 18.6666H15.4667V29.3333H18.1334V18.6666ZM12.8001 18.6666H6.1334V26.6666C6.1334 27.3739 6.41435 28.0521 6.91445 28.5522C7.41455 29.0523 8.09282 29.3333 8.80007 29.3333H12.8001V18.6666ZM20.8001 18.6666V29.3333H24.8001C25.5073 29.3333 26.1856 29.0523 26.6857 28.5522C27.1858 28.0521 27.4667 27.3739 27.4667 26.6666V18.6666H20.8001Z" fill="#757F90"/>
</svg>
