<svg width="36" height="36" viewBox="0 0 36 36" fill="none" xmlns="http://www.w3.org/2000/svg">
<rect width="36" height="36" rx="18" fill="#24BA7C"/>
<path d="M11.7737 17.809C11.6553 17.6986 11.4985 17.6385 11.3366 17.6414C11.1747 17.6442 11.0202 17.7098 10.9057 17.8243C10.7912 17.9388 10.7256 18.0933 10.7228 18.2553C10.7199 18.4172 10.78 18.5739 10.8904 18.6924L14.6404 22.4424C14.7576 22.5594 14.9164 22.6251 15.0821 22.6251C15.2477 22.6251 15.4065 22.5594 15.5237 22.4424L24.6904 13.2757C24.8008 13.1572 24.8609 13.0005 24.858 12.8386C24.8552 12.6767 24.7896 12.5222 24.6751 12.4077C24.5606 12.2932 24.4061 12.2276 24.2442 12.2247C24.0823 12.2218 23.9255 12.282 23.8071 12.3924L15.0821 21.1174L11.7737 17.809Z" fill="white"/>
</svg>
