<svg width="36" height="36" viewBox="0 0 36 36" fill="none" xmlns="http://www.w3.org/2000/svg">
<rect width="36" height="36" rx="18" fill="#DAE0E9"/>
<g clip-path="url(#clip0_804_15213)">
<path d="M25.333 18C25.333 18.1768 25.2628 18.3464 25.1377 18.4714C25.0127 18.5964 24.8432 18.6667 24.6663 18.6667H22.753C22.4085 18.6655 22.0701 18.5759 21.7702 18.4064C21.4703 18.2369 21.219 17.9932 21.0403 17.6987L20.1283 16.1847L19.137 18.6C19.1038 18.681 19.055 18.7547 18.9934 18.8169C18.9317 18.879 18.8584 18.9284 18.7776 18.9623C18.6969 18.9961 18.6102 19.0137 18.5227 19.0141C18.4351 19.0144 18.3484 18.9975 18.2673 18.9643C18.1863 18.9312 18.1126 18.8823 18.0505 18.8207C17.9883 18.759 17.9389 18.6857 17.9051 18.605C17.8712 18.5242 17.8536 18.4376 17.8533 18.35C17.8529 18.2625 17.8698 18.1757 17.903 18.0947L19.0363 15.3333H17.7437L16.3677 18.688C16.3081 18.833 16.3015 18.9943 16.3491 19.1437C16.3966 19.293 16.4953 19.4208 16.6277 19.5047L19.689 21.438C19.7839 21.4979 19.8622 21.5809 19.9165 21.6791C19.9708 21.7774 19.9994 21.8877 19.9997 22V25.3333C19.9997 25.5101 19.9294 25.6797 19.8044 25.8047C19.6794 25.9298 19.5098 26 19.333 26C19.1562 26 18.9866 25.9298 18.8616 25.8047C18.7366 25.6797 18.6663 25.5101 18.6663 25.3333V22.3673L15.9157 20.634C15.5175 20.3828 15.2207 19.9992 15.0775 19.5506C14.9343 19.1021 14.954 18.6175 15.133 18.182L16.3023 15.3333H14.8237C14.6999 15.3329 14.5784 15.3671 14.4731 15.4322C14.3677 15.4972 14.2827 15.5904 14.2277 15.7013L13.263 17.6313C13.2239 17.7097 13.1697 17.7796 13.1035 17.837C13.0374 17.8944 12.9606 17.9382 12.8775 17.966C12.7945 17.9937 12.7067 18.0048 12.6194 17.9986C12.532 17.9925 12.4467 17.9691 12.3683 17.93C12.29 17.8909 12.2201 17.8367 12.1627 17.7705C12.1053 17.7044 12.0615 17.6276 12.0337 17.5445C12.006 17.4614 11.9949 17.3737 12.0011 17.2864C12.0072 17.199 12.0305 17.1137 12.0697 17.0353L13.035 15.102C13.2006 14.7697 13.4559 14.4904 13.772 14.2956C14.0881 14.1009 14.4524 13.9985 14.8237 14H19.239C19.5838 14.001 19.9225 14.0907 20.2226 14.2603C20.5228 14.4299 20.7743 14.6738 20.953 14.9687L22.1823 17.0107C22.2419 17.1088 22.3256 17.19 22.4256 17.2465C22.5255 17.303 22.6382 17.3329 22.753 17.3333H24.6663C24.8432 17.3333 25.0127 17.4036 25.1377 17.5286C25.2628 17.6536 25.333 17.8232 25.333 18ZM15.2497 21.2093C15.1684 21.1768 15.0815 21.1606 14.9939 21.1617C14.9064 21.1627 14.8199 21.181 14.7394 21.2155C14.659 21.25 14.5861 21.3 14.5249 21.3626C14.4637 21.4253 14.4155 21.4994 14.383 21.5807C14.334 21.7048 14.2487 21.8112 14.1382 21.8861C14.0276 21.9609 13.8971 22.0006 13.7637 22H11.9997C11.8229 22 11.6533 22.0702 11.5283 22.1953C11.4032 22.3203 11.333 22.4899 11.333 22.6667C11.333 22.8435 11.4032 23.013 11.5283 23.1381C11.6533 23.2631 11.8229 23.3333 11.9997 23.3333H13.7637C14.1637 23.3346 14.5549 23.2153 14.8862 22.991C15.2175 22.7668 15.4735 22.4479 15.621 22.076C15.6535 21.9947 15.6697 21.9078 15.6687 21.8203C15.6676 21.7327 15.6493 21.6462 15.6149 21.5658C15.5804 21.4853 15.5304 21.4124 15.4677 21.3512C15.4051 21.2901 15.331 21.2419 15.2497 21.2093ZM19.9997 13.3333C20.3293 13.3333 20.6515 13.2356 20.9256 13.0524C21.1997 12.8693 21.4133 12.609 21.5395 12.3045C21.6656 11.9999 21.6986 11.6648 21.6343 11.3415C21.57 11.0182 21.4113 10.7212 21.1782 10.4882C20.9451 10.2551 20.6481 10.0963 20.3248 10.032C20.0015 9.96772 19.6664 10.0007 19.3619 10.1269C19.0573 10.253 18.797 10.4666 18.6139 10.7407C18.4308 11.0148 18.333 11.337 18.333 11.6667C18.333 12.1087 18.5086 12.5326 18.8212 12.8452C19.1337 13.1577 19.5576 13.3333 19.9997 13.3333Z" fill="#9CA9B9"/>
</g>
<defs>
<clipPath id="clip0_804_15213">
<rect width="16" height="16" fill="white" transform="translate(10 10)"/>
</clipPath>
</defs>
</svg>
