<svg width="33" height="33" viewBox="0 0 33 33" fill="none" xmlns="http://www.w3.org/2000/svg">
<path fill-rule="evenodd" clip-rule="evenodd" d="M14.4232 6.2286C15.5542 5.2389 17.2431 5.2389 18.3742 6.2286L26.1619 13.0428C26.7418 13.5503 27.1043 14.2615 27.174 15.0289L28.1068 25.2893C28.2645 27.0239 26.9221 28.5274 25.1805 28.5579C20.6177 28.6379 12.4568 28.7722 9.16368 28.7722C4.4766 28.7722 4.39868 28.5 4.39868 28.5L4.71516 25.0188C5.01323 25.249 5.36086 25.4904 5.76626 25.7409C7.5155 26.8216 9.8134 27.1331 11.0615 27.2225L11.0612 27.2244C11.0612 27.2244 11.3246 27.2797 13.4926 27.2598C15.2603 27.2435 17.7249 27.2153 19.4975 27.1942C20.6904 27.18 21.6036 26.1309 21.4556 24.9471L20.7282 19.1283C20.5406 17.627 19.2644 16.5004 17.7514 16.5004H15.0486C13.5354 16.5004 12.2591 17.6273 12.0717 19.1289L11.2652 25.5898C6.83676 25.3214 5.04707 22.84 4.92878 22.669L5.62333 15.0289C5.6931 14.2615 6.05553 13.5503 6.63549 13.0428L14.4232 6.2286Z" fill="#181C21"/>
</svg>
