<svg width="24" height="24" viewBox="0 0 24 24" fill="none" xmlns="http://www.w3.org/2000/svg">
<path d="M2 21L9 5L14 17L16 11L22 21H2ZM18.5 7C19.163 7 19.7989 6.73661 20.2678 6.26777C20.7366 5.79893 21 5.16304 21 4.5C21 3.83696 20.7366 3.20107 20.2678 2.73223C19.7989 2.26339 19.163 2 18.5 2C17.837 2 17.2011 2.26339 16.7322 2.73223C16.2634 3.20107 16 3.83696 16 4.5C16 5.16304 16.2634 5.79893 16.7322 6.26777C17.2011 6.73661 17.837 7 18.5 7Z" stroke="#ED0226" stroke-width="2" stroke-linejoin="round"/>
</svg>
