<svg width="25" height="24" viewBox="0 0 25 24" fill="none" xmlns="http://www.w3.org/2000/svg">
<path d="M21.0835 12C21.0835 12.221 20.9957 12.433 20.8394 12.5893C20.6831 12.7455 20.4712 12.8333 20.2502 12.8333H17.8585C17.4279 12.8319 17.0049 12.7199 16.63 12.508C16.2551 12.2962 15.941 11.9915 15.7177 11.6233L14.5777 9.73084L13.3385 12.75C13.297 12.8513 13.236 12.9434 13.1589 13.0211C13.0818 13.0988 12.9902 13.1606 12.8893 13.2029C12.7883 13.2451 12.68 13.2671 12.5706 13.2676C12.4612 13.268 12.3527 13.2469 12.2514 13.2054C12.1501 13.1639 12.058 13.1029 11.9803 13.0258C11.9026 12.9488 11.8409 12.8571 11.7986 12.7562C11.7563 12.6553 11.7343 12.547 11.7338 12.4375C11.7334 12.3281 11.7545 12.2196 11.796 12.1183L13.2127 8.66667H11.5968L9.87683 12.86C9.80236 13.0412 9.79412 13.2429 9.85355 13.4296C9.91299 13.6163 10.0363 13.776 10.2018 13.8808L14.0285 16.2975C14.1471 16.3724 14.2449 16.4761 14.3128 16.5989C14.3807 16.7217 14.4165 16.8597 14.4168 17V21.1667C14.4168 21.3877 14.329 21.5996 14.1728 21.7559C14.0165 21.9122 13.8045 22 13.5835 22C13.3625 22 13.1505 21.9122 12.9942 21.7559C12.838 21.5996 12.7502 21.3877 12.7502 21.1667V17.4592L9.31183 15.2925C8.81408 14.9785 8.44306 14.4989 8.2641 13.9383C8.08515 13.3776 8.10972 12.7718 8.3335 12.2275L9.79516 8.66667H7.94683C7.79208 8.6661 7.64026 8.70889 7.50858 8.79019C7.37691 8.87149 7.27064 8.98806 7.20183 9.12667L5.996 11.5392C5.94708 11.6371 5.87935 11.7245 5.79667 11.7962C5.714 11.868 5.618 11.9228 5.51415 11.9574C5.4103 11.9921 5.30064 12.006 5.19144 11.9983C5.08223 11.9906 4.97561 11.9614 4.87766 11.9125C4.77972 11.8636 4.69237 11.7959 4.6206 11.7132C4.54883 11.6305 4.49405 11.5345 4.45938 11.4307C4.42471 11.3268 4.41084 11.2171 4.41855 11.1079C4.42627 10.9987 4.45541 10.8921 4.50433 10.7942L5.711 8.3775C5.918 7.96213 6.23712 7.61297 6.63224 7.36953C7.02737 7.1261 7.48274 6.99809 7.94683 7H13.466C13.8969 7.00128 14.3203 7.11332 14.6955 7.32535C15.0707 7.53739 15.3851 7.84231 15.6085 8.21083L17.1452 10.7633C17.2196 10.886 17.3243 10.9875 17.4492 11.0581C17.5741 11.1287 17.715 11.1661 17.8585 11.1667H20.2502C20.4712 11.1667 20.6831 11.2545 20.8394 11.4107C20.9957 11.567 21.0835 11.779 21.0835 12ZM8.47933 16.0117C8.37772 15.971 8.2691 15.9508 8.15966 15.9521C8.05022 15.9534 7.94212 15.9763 7.84152 16.0194C7.74092 16.0625 7.6498 16.125 7.57336 16.2033C7.49691 16.2816 7.43665 16.3742 7.396 16.4758C7.33474 16.631 7.22807 16.7641 7.08993 16.8576C6.9518 16.9511 6.78865 17.0007 6.62183 17H4.41683C4.19582 17 3.98385 17.0878 3.82757 17.2441C3.67129 17.4004 3.5835 17.6123 3.5835 17.8333C3.5835 18.0543 3.67129 18.2663 3.82757 18.4226C3.98385 18.5789 4.19582 18.6667 4.41683 18.6667H6.62183C7.12191 18.6682 7.61086 18.5191 8.02498 18.2388C8.4391 17.9584 8.75917 17.5599 8.9435 17.095C8.98416 16.9934 9.00441 16.8848 9.00309 16.7753C9.00177 16.6659 8.9789 16.5578 8.9358 16.4572C8.8927 16.3566 8.8302 16.2655 8.75188 16.189C8.67356 16.1126 8.58094 16.0523 8.47933 16.0117ZM14.4168 6.16667C14.8289 6.16667 15.2317 6.04448 15.5743 5.81556C15.9169 5.58664 16.1839 5.26127 16.3416 4.88059C16.4993 4.49991 16.5405 4.08102 16.4601 3.6769C16.3797 3.27277 16.1813 2.90155 15.89 2.6102C15.5986 2.31884 15.2274 2.12042 14.8233 2.04003C14.4191 1.95965 14.0003 2.0009 13.6196 2.15859C13.2389 2.31627 12.9135 2.58329 12.6846 2.9259C12.4557 3.2685 12.3335 3.67129 12.3335 4.08333C12.3335 4.63587 12.553 5.16577 12.9437 5.55647C13.3344 5.94717 13.8643 6.16667 14.4168 6.16667Z" fill="#FDA22B"/>
</svg>
