<svg width="24" height="24" viewBox="0 0 24 24" fill="none" xmlns="http://www.w3.org/2000/svg">
<path d="M8.75 10C8.75 9.13805 9.09241 8.3114 9.7019 7.7019C10.3114 7.09241 11.138 6.75 12 6.75C12.862 6.75 13.6886 7.09241 14.2981 7.7019C14.9076 8.3114 15.25 9.13805 15.25 10C15.25 10.862 14.9076 11.6886 14.2981 12.2981C13.6886 12.9076 12.862 13.25 12 13.25C11.138 13.25 10.3114 12.9076 9.7019 12.2981C9.09241 11.6886 8.75 10.862 8.75 10Z" fill="#ED0226"/>
<path fill-rule="evenodd" clip-rule="evenodd" d="M3.77401 8.877C3.9399 6.86658 4.85565 4.99203 6.33949 3.62546C7.82332 2.25888 9.76676 1.50019 11.784 1.5H12.216C14.2333 1.50019 16.1767 2.25888 17.6605 3.62546C19.1444 4.99203 20.0601 6.86658 20.226 8.877C20.4113 11.1215 19.7183 13.3503 18.293 15.094L13.5 20.956C13.3183 21.1783 13.0895 21.3575 12.8301 21.4806C12.5707 21.6036 12.2871 21.6675 12 21.6675C11.7129 21.6675 11.4293 21.6036 11.1699 21.4806C10.9105 21.3575 10.6817 21.1783 10.5 20.956L5.70801 15.094C4.28231 13.3505 3.58896 11.1216 3.77401 8.877ZM12 5.25C10.7402 5.25 9.53205 5.75045 8.64125 6.64124C7.75045 7.53204 7.25001 8.74022 7.25001 10C7.25001 11.2598 7.75045 12.468 8.64125 13.3588C9.53205 14.2496 10.7402 14.75 12 14.75C13.2598 14.75 14.468 14.2496 15.3588 13.3588C16.2496 12.468 16.75 11.2598 16.75 10C16.75 8.74022 16.2496 7.53204 15.3588 6.64124C14.468 5.75045 13.2598 5.25 12 5.25Z" fill="#ED0226"/>
</svg>
