<svg width="340" height="102" viewBox="0 0 340 102" fill="none" xmlns="http://www.w3.org/2000/svg">
<path d="M7 0H0V102H340V44.3938L331.5 34.8808H326.5L317 28.0104H308.5L301.5 22.1969H288H280H268.5H260L246 26.4249L233 40.6943L223.5 48.0933L204.5 50.7357L189.5 34.8808L180 26.4249L173 22.1969L169.5 13.2124L151 26.4249H141L117.5 38.5803L111.5 50.7357H97L85.5 59.1917H78.5H71L64 68.1762L61.5 64.4767L53 78.2176L48 71.3471L39 82.9741L34 76.6321L27.5 84.5596L19.5 76.6321L13.5 50.7357L9.5 26.4249L7 0Z" fill="#9CA9B9"/>
</svg>
