<svg width="32" height="32" viewBox="0 0 32 32" fill="none" xmlns="http://www.w3.org/2000/svg">
<path d="M24.6666 9.33335C26.5076 9.33335 28 7.84097 28 6.00002C28 4.15907 26.5076 2.66669 24.6666 2.66669C22.8257 2.66669 21.3333 4.15907 21.3333 6.00002C21.3333 7.84097 22.8257 9.33335 24.6666 9.33335Z" stroke="white" stroke-width="3"/>
<path d="M19.2 29.3334V28.0534C19.1848 26.6106 18.8353 25.191 18.1789 23.9061C17.5226 22.6212 16.5773 21.506 15.4173 20.648C15.364 20.608 15.3373 20.588 15.3173 20.5707C15.017 20.3336 14.7712 20.0347 14.5966 19.6942C14.4221 19.3537 14.3228 18.9797 14.3056 18.5975C14.2884 18.2152 14.3537 17.8338 14.4969 17.479C14.6402 17.1242 14.8582 16.8044 15.136 16.5414L15.2293 16.456L16.616 15.1947C18.7866 13.2227 18.1266 9.65735 15.3946 8.59469C14.9104 8.40601 14.3936 8.31477 13.874 8.32621C13.3544 8.33765 12.8422 8.45154 12.3666 8.66135L11.6706 8.96802C10.9506 9.28402 10.592 9.44268 10.2413 9.61735C9.65731 9.90668 9.08931 10.2307 8.54131 10.584C8.21198 10.7974 7.89198 11.024 7.25198 11.48L5.33331 12.848" stroke="white" stroke-width="3" stroke-linecap="round"/>
<path opacity="0.5" d="M12 22.6667L11.6533 23.0813C10.7184 24.2033 9.54819 25.1061 8.22563 25.7256C6.90308 26.3452 5.46049 26.6665 4 26.6667M21.3333 16C23.0842 16.4377 24.9158 16.4377 26.6667 16" stroke="white" stroke-width="3" stroke-linecap="round"/>
</svg>
