<svg width="32" height="32" viewBox="0 0 32 32" fill="none" xmlns="http://www.w3.org/2000/svg">
<path d="M8.02133 6.00265C7.49979 6.0023 6.98331 6.10476 6.5014 6.30418C6.0195 6.50361 5.58164 6.79607 5.21286 7.16485C4.84408 7.53363 4.55162 7.97149 4.35219 8.45339C4.15277 8.9353 4.05031 9.45178 4.05066 9.97332C4.05066 12.9507 8.02133 17.3467 8.02133 17.3467C8.02133 17.3467 11.992 12.9507 11.992 9.97332C11.9923 9.45178 11.8899 8.9353 11.6905 8.45339C11.491 7.97149 11.1986 7.53363 10.8298 7.16485C10.461 6.79607 10.0232 6.50361 9.54125 6.30418C9.05935 6.10476 8.54286 6.0023 8.02133 6.00265ZM8.02133 11.3906C7.741 11.3906 7.46698 11.3075 7.2339 11.1518C7.00082 10.996 6.81916 10.7747 6.71188 10.5157C6.60461 10.2567 6.57654 9.97174 6.63123 9.69681C6.68592 9.42187 6.8209 9.16933 7.01912 8.97111C7.21734 8.77289 7.46988 8.6379 7.74482 8.58322C8.01975 8.52853 8.30473 8.5566 8.56372 8.66387C8.8227 8.77115 9.04406 8.95281 9.1998 9.18589C9.35554 9.41897 9.43866 9.69299 9.43866 9.97332C9.43831 10.3491 9.28887 10.7094 9.02314 10.9751C8.75742 11.2409 8.39712 11.3903 8.02133 11.3906ZM28.032 15.0613V9.32798C28.022 8.72597 27.9305 8.12809 27.76 7.55065C27.3225 6.02441 26.3542 4.70462 25.0297 3.82913C23.7052 2.95364 22.1116 2.58002 20.536 2.7756C18.9603 2.97119 17.5064 3.72311 16.4361 4.89587C15.3659 6.06863 14.7497 7.5851 14.6987 9.17198V9.50265L14.6853 10.6627V23.932H14.68V23.9867C14.68 24.6939 14.399 25.3722 13.8989 25.8723C13.3988 26.3724 12.7206 26.6533 12.0133 26.6533C11.3061 26.6533 10.6278 26.3724 10.1277 25.8723C9.62761 25.3722 9.34666 24.6939 9.34666 23.9867L9.35199 23.9373H9.34666V21.3467H6.67999V24.0133H6.68266C6.68354 25.4271 7.24601 26.7826 8.24633 27.7817C9.24665 28.7808 10.6029 29.3415 12.0167 29.3407C13.4304 29.3398 14.786 28.7773 15.785 27.777C16.7841 26.7767 17.3449 25.4204 17.344 24.0066H17.3467V22.6973H17.3533V11.996L17.3667 9.50265V9.17332C17.4047 8.12366 17.8539 7.13104 18.6173 6.40969C19.3808 5.68833 20.3973 5.29609 21.4474 5.31762C22.4975 5.33914 23.4971 5.77271 24.2303 6.52475C24.9636 7.27679 25.3717 8.28699 25.3667 9.33732V15.0373C24.8561 15.3262 24.4551 15.7755 24.2258 16.3155C23.9966 16.8555 23.9519 17.4561 24.0987 18.0241C24.2455 18.5921 24.5756 19.0958 25.0379 19.457C25.5001 19.8183 26.0686 20.017 26.6552 20.0223C27.2419 20.0276 27.8139 19.8391 28.2825 19.4862C28.7512 19.1334 29.0903 18.6357 29.2473 18.0704C29.4043 17.5052 29.3705 16.9039 29.151 16.3599C28.9315 15.8158 28.5373 15.3594 28.032 15.0613Z" fill="#ED0226"/>
</svg>
