<svg width="40" height="40" viewBox="0 0 40 40" fill="none" xmlns="http://www.w3.org/2000/svg">
<path d="M30.8334 11.6666C33.1345 11.6666 35 9.80111 35 7.49992C35 5.19873 33.1345 3.33325 30.8334 3.33325C28.5322 3.33325 26.6667 5.19873 26.6667 7.49992C26.6667 9.80111 28.5322 11.6666 30.8334 11.6666Z" stroke="#181C21" stroke-width="3"/>
<path d="M24 36.6666V35.0666C23.981 33.2632 23.5441 31.4887 22.7237 29.8826C21.9033 28.2765 20.7217 26.8824 19.2717 25.8099C19.205 25.7599 19.1717 25.7349 19.1467 25.7133C18.7713 25.4169 18.4641 25.0433 18.2458 24.6177C18.0276 24.1921 17.9036 23.7245 17.8821 23.2468C17.8606 22.769 17.9421 22.2922 18.1212 21.8487C18.3003 21.4052 18.5728 21.0055 18.92 20.6766L19.0367 20.5699L20.77 18.9933C23.4834 16.5283 22.6584 12.0716 19.2434 10.7433C18.638 10.5074 17.9921 10.3934 17.3425 10.4077C16.693 10.422 16.0527 10.5644 15.4584 10.8266L14.5884 11.2099C13.6884 11.6049 13.24 11.8033 12.8017 12.0216C12.0717 12.3833 11.3617 12.7883 10.6767 13.2299C10.265 13.4966 9.86502 13.7799 9.06502 14.3499L6.66669 16.0599" stroke="#181C21" stroke-width="3" stroke-linecap="round"/>
<path opacity="0.5" d="M15 28.3333L14.5667 28.8517C13.398 30.2542 11.9352 31.3826 10.282 32.1571C8.62885 32.9315 6.82561 33.3331 5 33.3333M26.6667 20C28.8552 20.5472 31.1448 20.5472 33.3333 20" stroke="#181C21" stroke-width="3" stroke-linecap="round"/>
</svg>
