<svg width="24" height="24" viewBox="0 0 24 24" fill="none" xmlns="http://www.w3.org/2000/svg">
<path d="M6.00006 7.06994C7.68096 6.09984 9.65719 5.77385 11.5606 6.15271C13.464 6.53156 15.1648 7.58943 16.3461 9.12923C17.5275 10.669 18.1088 12.5858 17.9818 14.5224C17.8548 16.4589 17.0281 18.2833 15.6558 19.6557C14.2835 21.028 12.4591 21.8546 10.5225 21.9816C8.58588 22.1087 6.66915 21.5274 5.12935 20.346C3.58955 19.1647 2.53169 17.4639 2.15283 15.5605C1.77397 13.6571 2.09996 11.6808 3.07006 9.99994" stroke="#0A5488" stroke-width="1.5" stroke-linecap="round"/>
<path d="M22.0001 2H22.7501C22.7501 1.80109 22.6711 1.61032 22.5304 1.46967C22.3898 1.32902 22.199 1.25 22.0001 1.25V2ZM21.2501 7C21.2501 7.19891 21.3291 7.38968 21.4698 7.53033C21.6104 7.67098 21.8012 7.75 22.0001 7.75C22.199 7.75 22.3898 7.67098 22.5304 7.53033C22.6711 7.38968 22.7501 7.19891 22.7501 7H21.2501ZM17.0001 1.25C16.8012 1.25 16.6104 1.32902 16.4698 1.46967C16.3291 1.61032 16.2501 1.80109 16.2501 2C16.2501 2.19891 16.3291 2.38968 16.4698 2.53033C16.6104 2.67098 16.8012 2.75 17.0001 2.75V1.25ZM16.0301 9.03L22.5301 2.53L21.4701 1.47L14.9701 7.97L16.0301 9.03ZM21.2501 2V7H22.7501V2H21.2501ZM17.0001 2.75H22.0001V1.25H17.0001V2.75Z" fill="#0A5488"/>
</svg>
