<svg width="25" height="24" viewBox="0 0 25 24" fill="none" xmlns="http://www.w3.org/2000/svg">
<path fill-rule="evenodd" clip-rule="evenodd" d="M15.0977 5.93101C13.7145 4.68966 11.6183 4.68966 10.2351 5.93101C8.91928 7.11185 8.64219 9.06738 9.57813 10.5673L11.4804 13.6158C11.2685 14.0734 11.0113 14.5619 10.6871 14.9821C10.5482 15.1621 10.4076 15.3163 10.2639 15.4443L7.88137 11.6261C6.43121 9.30208 6.86054 6.27214 8.89926 4.44252C11.0424 2.51916 14.2904 2.51916 16.4335 4.44252C18.4723 6.27214 18.9016 9.30208 17.4514 11.6261L13.5355 17.9016C13.1344 18.5444 12.1984 18.5444 11.7973 17.9016L11.3306 17.1537C11.7017 16.871 12.0135 16.537 12.2707 16.2037C12.6556 15.7048 12.9594 15.1549 13.1941 14.6708L15.7547 10.5673C16.6906 9.06738 16.4135 7.11185 15.0977 5.93101ZM12.6664 9.4054C13.2187 9.4054 13.6664 8.95768 13.6664 8.4054C13.6664 7.85311 13.2187 7.4054 12.6664 7.4054C12.1141 7.4054 11.6664 7.85311 11.6664 8.4054C11.6664 8.95768 12.1141 9.4054 12.6664 9.4054ZM12.6664 10.4054C13.771 10.4054 14.6664 9.50996 14.6664 8.4054C14.6664 7.30083 13.771 6.4054 12.6664 6.4054C11.5618 6.4054 10.6664 7.30083 10.6664 8.4054C10.6664 9.50996 11.5618 10.4054 12.6664 10.4054ZM4.6054 15.2058C4.74563 14.5047 5.36125 14 6.07628 14H7.66636C8.21864 14 8.66636 14.4477 8.66636 15C8.66636 15.5523 8.21864 16 7.66636 16H6.48618L5.88618 19L19.4466 19L18.8466 16H17.6664C17.1141 16 16.6664 15.5523 16.6664 15C16.6664 14.4477 17.1141 14 17.6664 14H19.2565C19.9715 14 20.5871 14.5047 20.7273 15.2058L21.4077 18.6078C21.6552 19.8454 20.7087 21 19.4466 21H5.88618C4.62408 21 3.6775 19.8454 3.92502 18.6078L4.6054 15.2058Z" fill="#008E53"/>
</svg>
