<svg width="29" height="32" viewBox="0 0 29 32" fill="none" xmlns="http://www.w3.org/2000/svg">
<path d="M28.6667 16C28.6667 16.3536 28.5263 16.6928 28.2762 16.9428C28.0262 17.1929 27.687 17.3333 27.3334 17.3333H23.5067C22.8178 17.3311 22.1409 17.1519 21.5411 16.8129C20.9413 16.4739 20.4387 15.9864 20.0814 15.3973L18.2574 12.3693L16.2747 17.2C16.2084 17.3621 16.1108 17.5094 15.9874 17.6338C15.8641 17.7581 15.7175 17.8569 15.556 17.9246C15.3945 17.9922 15.2212 18.0274 15.0461 18.0281C14.871 18.0288 14.6975 17.995 14.5354 17.9287C14.3734 17.8623 14.226 17.7647 14.1016 17.6414C13.9773 17.518 13.8785 17.3714 13.8109 17.2099C13.7432 17.0484 13.708 16.8751 13.7073 16.7C13.7066 16.5249 13.7404 16.3514 13.8067 16.1893L16.0734 10.6667H13.4881L10.7361 17.376C10.6169 17.6659 10.6037 17.9886 10.6988 18.2873C10.7939 18.586 10.9912 18.8416 11.2561 19.0093L17.3787 22.876C17.5686 22.9959 17.725 23.1618 17.8337 23.3583C17.9423 23.5548 17.9995 23.7755 18.0001 24V30.6667C18.0001 31.0203 17.8596 31.3594 17.6096 31.6095C17.3595 31.8595 17.0204 32 16.6667 32C16.3131 32 15.974 31.8595 15.7239 31.6095C15.4739 31.3594 15.3334 31.0203 15.3334 30.6667V24.7347L9.83208 21.268C9.03568 20.7656 8.44205 19.9983 8.15572 19.1013C7.86939 18.2042 7.9087 17.2349 8.26675 16.364L10.6054 10.6667H7.64808C7.40048 10.6658 7.15757 10.7342 6.94689 10.8643C6.73621 10.9944 6.56618 11.1809 6.45608 11.4027L4.52675 15.2627C4.44848 15.4194 4.34011 15.5591 4.20783 15.674C4.07555 15.7888 3.92195 15.8765 3.75579 15.9319C3.58964 15.9874 3.41419 16.0096 3.23945 15.9972C3.06472 15.9849 2.89413 15.9383 2.73741 15.86C2.5807 15.7817 2.44094 15.6734 2.32611 15.5411C2.21128 15.4088 2.12363 15.2552 2.06816 15.089C2.0127 14.9229 1.9905 14.7474 2.00284 14.5727C2.01518 14.398 2.06181 14.2274 2.14008 14.0707L4.07075 10.204C4.40196 9.5394 4.91254 8.98075 5.54474 8.59125C6.17694 8.20175 6.90553 7.99695 7.64808 8H16.4787C17.1683 8.00205 17.8457 8.18131 18.446 8.52057C19.0463 8.85982 19.5493 9.34769 19.9067 9.93734L22.3654 14.0213C22.4845 14.2176 22.652 14.38 22.8519 14.493C23.0517 14.6059 23.2772 14.6658 23.5067 14.6667H27.3334C27.687 14.6667 28.0262 14.8071 28.2762 15.0572C28.5263 15.3072 28.6667 15.6464 28.6667 16ZM8.50008 22.4187C8.33751 22.3536 8.16371 22.3212 7.98861 22.3233C7.81351 22.3254 7.64055 22.362 7.47959 22.431C7.31863 22.5 7.17284 22.5999 7.05053 22.7253C6.92822 22.8506 6.83179 22.9988 6.76675 23.1613C6.66874 23.4096 6.49806 23.6225 6.27705 23.7721C6.05603 23.9218 5.79499 24.0012 5.52808 24H2.00008C1.64646 24 1.30732 24.1405 1.05727 24.3905C0.807224 24.6406 0.666748 24.9797 0.666748 25.3333C0.666748 25.687 0.807224 26.0261 1.05727 26.2761C1.30732 26.5262 1.64646 26.6667 2.00008 26.6667H5.52808C6.32821 26.6692 7.11054 26.4306 7.77312 25.9821C8.43571 25.5335 8.94783 24.8958 9.24275 24.152C9.30781 23.9894 9.34021 23.8156 9.33809 23.6405C9.33598 23.4654 9.2994 23.2925 9.23043 23.1315C9.16147 22.9706 9.06147 22.8248 8.93616 22.7024C8.81084 22.5801 8.66266 22.4837 8.50008 22.4187ZM18.0001 6.66667C18.6594 6.66667 19.3038 6.47117 19.852 6.1049C20.4001 5.73863 20.8274 5.21803 21.0797 4.60895C21.332 3.99986 21.398 3.32964 21.2694 2.68303C21.1407 2.03643 20.8233 1.44249 20.3571 0.976312C19.8909 0.510137 19.297 0.192668 18.6504 0.0640506C18.0038 -0.0645668 17.3336 0.00144428 16.7245 0.253736C16.1154 0.506029 15.5948 0.93327 15.2285 1.48143C14.8622 2.0296 14.6667 2.67406 14.6667 3.33333C14.6667 4.21739 15.0179 5.06524 15.6431 5.69036C16.2682 6.31548 17.116 6.66667 18.0001 6.66667Z" fill="#008E53"/>
</svg>
