<svg width="33" height="32" viewBox="0 0 33 32" fill="none" xmlns="http://www.w3.org/2000/svg">
<path fill-rule="evenodd" clip-rule="evenodd" d="M4.95911 8.17021C4.95911 7.07812 5.60749 6.13747 6.5403 5.7122C7.0209 6.17832 7.67775 6.67556 8.57494 7.17285C10.5395 8.26173 12.1879 8.52455 13.0521 8.58034V14.9757L16.107 16.713C16.5054 16.9396 16.9938 16.9396 17.3923 16.713L20.4464 14.9761V6.87021H13.0521V7.10552C10.2797 6.95843 9.17976 6.12642 8.74379 5.47021H25.8401C27.3313 5.47021 28.5401 6.67905 28.5401 8.17022V10.4131C28.5401 11.384 28.0189 12.2801 27.1749 12.7601L18.0844 17.93C17.8112 18.0854 17.5176 18.1895 17.2171 18.2422C19.599 18.4532 21.4667 20.4538 21.4667 22.8905C21.4667 25.4679 19.3773 27.5572 16.8 27.5572C14.2227 27.5572 12.1333 25.4679 12.1333 22.8905C12.1333 20.4757 13.9674 18.4894 16.3186 18.2484C16.0054 18.1978 15.6991 18.0916 15.4149 17.93L6.32434 12.7601C5.48038 12.2801 4.95911 11.384 4.95911 10.4131V8.17021Z" fill="#757F90"/>
</svg>
