<svg width="33" height="33" viewBox="0 0 33 33" fill="none" xmlns="http://www.w3.org/2000/svg">
<g clip-path="url(#clip0_763_3928)">
<path d="M30.8679 16.5C30.8679 16.8536 30.7274 17.1928 30.4774 17.4428C30.2273 17.6929 29.8882 17.8333 29.5346 17.8333H25.7079C25.0189 17.8311 24.3421 17.6519 23.7423 17.3129C23.1425 16.9739 22.6399 16.4864 22.2826 15.8973L20.4586 12.8693L18.4759 17.7C18.4096 17.8621 18.3119 18.0094 18.1886 18.1338C18.0653 18.2581 17.9187 18.3569 17.7572 18.4246C17.5957 18.4922 17.4224 18.5274 17.2473 18.5281C17.0722 18.5288 16.8986 18.495 16.7366 18.4287C16.5745 18.3623 16.4271 18.2647 16.3028 18.1414C16.1785 18.018 16.0797 17.8714 16.012 17.7099C15.9444 17.5484 15.9092 17.3751 15.9085 17.2C15.9078 17.0249 15.9416 16.8514 16.0079 16.6893L18.2746 11.1667H15.6893L12.9373 17.876C12.8181 18.1659 12.8049 18.4886 12.9 18.7873C12.9951 19.086 13.1924 19.3416 13.4573 19.5093L19.5799 23.376C19.7697 23.4959 19.9262 23.6618 20.0348 23.8583C20.1435 24.0548 20.2007 24.2755 20.2013 24.5V31.1667C20.2013 31.5203 20.0608 31.8594 19.8107 32.1095C19.5607 32.3595 19.2215 32.5 18.8679 32.5C18.5143 32.5 18.1752 32.3595 17.9251 32.1095C17.6751 31.8594 17.5346 31.5203 17.5346 31.1667V25.2347L12.0333 21.768C11.2368 21.2656 10.6432 20.4983 10.3569 19.6013C10.0706 18.7042 10.1099 17.7349 10.4679 16.864L12.8066 11.1667H9.84925C9.60165 11.1658 9.35874 11.2342 9.14806 11.3643C8.93738 11.4944 8.76735 11.6809 8.65725 11.9027L6.72792 15.7627C6.64965 15.9194 6.54128 16.0591 6.409 16.174C6.27672 16.2888 6.12312 16.3765 5.95697 16.4319C5.79081 16.4874 5.61536 16.5096 5.44062 16.4972C5.26589 16.4849 5.0953 16.4383 4.93859 16.36C4.78188 16.2817 4.64212 16.1734 4.52729 16.0411C4.41246 15.9088 4.3248 15.7552 4.26934 15.589C4.21387 15.4229 4.19167 15.2474 4.20401 15.0727C4.21635 14.898 4.26299 14.7274 4.34125 14.5707L6.27192 10.704C6.60313 10.0394 7.11371 9.48075 7.74591 9.09125C8.37812 8.70175 9.1067 8.49695 9.84925 8.5H18.6799C19.3694 8.50205 20.0469 8.68131 20.6472 9.02057C21.2475 9.35982 21.7505 9.84769 22.1079 10.4373L24.5666 14.5213C24.6857 14.7176 24.8532 14.88 25.053 14.993C25.2529 15.1059 25.4784 15.1658 25.7079 15.1667H29.5346C29.8882 15.1667 30.2273 15.3071 30.4774 15.5572C30.7274 15.8072 30.8679 16.1464 30.8679 16.5ZM10.7013 22.9187C10.5387 22.8536 10.3649 22.8212 10.1898 22.8233C10.0147 22.8254 9.84172 22.862 9.68076 22.931C9.5198 23 9.37401 23.0999 9.2517 23.2253C9.12939 23.3506 9.03296 23.4988 8.96792 23.6613C8.86991 23.9096 8.69923 24.1225 8.47822 24.2721C8.2572 24.4218 7.99616 24.5012 7.72925 24.5H4.20125C3.84763 24.5 3.50849 24.6405 3.25844 24.8905C3.0084 25.1406 2.86792 25.4797 2.86792 25.8333C2.86792 26.187 3.0084 26.5261 3.25844 26.7761C3.50849 27.0262 3.84763 27.1667 4.20125 27.1667H7.72925C8.52938 27.1692 9.31171 26.9306 9.97429 26.4821C10.6369 26.0335 11.149 25.3958 11.4439 24.652C11.509 24.4894 11.5414 24.3156 11.5393 24.1405C11.5372 23.9654 11.5006 23.7925 11.4316 23.6315C11.3626 23.4706 11.2626 23.3248 11.1373 23.2024C11.012 23.0801 10.8638 22.9837 10.7013 22.9187ZM20.2013 7.16667C20.8605 7.16667 21.505 6.97117 22.0532 6.6049C22.6013 6.23863 23.0286 5.71803 23.2809 5.10895C23.5331 4.49986 23.5992 3.82964 23.4705 3.18303C23.3419 2.53643 23.0245 1.94249 22.5583 1.47631C22.0921 1.01014 21.4982 0.692668 20.8516 0.564051C20.205 0.435433 19.5347 0.501444 18.9256 0.753736C18.3166 1.00603 17.796 1.43327 17.4297 1.98143C17.0634 2.5296 16.8679 3.17406 16.8679 3.83333C16.8679 4.71739 17.2191 5.56524 17.8442 6.19036C18.4694 6.81548 19.3172 7.16667 20.2013 7.16667Z" fill="#181C21"/>
</g>
<defs>
<clipPath id="clip0_763_3928">
<rect width="32" height="32" fill="white" transform="translate(0.199951 0.5)"/>
</clipPath>
</defs>
</svg>
