<svg width="48" height="48" viewBox="0 0 48 48" fill="none" xmlns="http://www.w3.org/2000/svg">
<path fill-rule="evenodd" clip-rule="evenodd" d="M46 24C46 29.8348 43.6822 35.4305 39.5564 39.5564C35.4305 43.6822 29.8348 46 24 46C18.1652 46 12.5695 43.6822 8.44365 39.5564C4.31785 35.4305 2 29.8348 2 24C2 18.1652 4.31785 12.5695 8.44365 8.44365C12.5695 4.31785 18.1652 2 24 2C29.8348 2 35.4305 4.31785 39.5564 8.44365C43.6822 12.5695 46 18.1652 46 24ZM15.75 18.5C15.75 17.7707 16.0397 17.0712 16.5555 16.5555C17.0712 16.0397 17.7707 15.75 18.5 15.75C19.2293 15.75 19.9288 16.0397 20.4445 16.5555C20.9603 17.0712 21.25 17.7707 21.25 18.5V29.5C21.25 30.2293 20.9603 30.9288 20.4445 31.4445C19.9288 31.9603 19.2293 32.25 18.5 32.25C17.7707 32.25 17.0712 31.9603 16.5555 31.4445C16.0397 30.9288 15.75 30.2293 15.75 29.5V18.5ZM29.5 15.75C28.7707 15.75 28.0712 16.0397 27.5555 16.5555C27.0397 17.0712 26.75 17.7707 26.75 18.5V29.5C26.75 30.2293 27.0397 30.9288 27.5555 31.4445C28.0712 31.9603 28.7707 32.25 29.5 32.25C30.2293 32.25 30.9288 31.9603 31.4445 31.4445C31.9603 30.9288 32.25 30.2293 32.25 29.5V18.5C32.25 17.7707 31.9603 17.0712 31.4445 16.5555C30.9288 16.0397 30.2293 15.75 29.5 15.75Z" fill="#181C21"/>
</svg>
