<svg width="33" height="33" viewBox="0 0 33 33" fill="none" xmlns="http://www.w3.org/2000/svg">
<path d="M27.4667 9.83329H26.5333C26.8387 9.21063 26.9987 8.52663 27.0013 7.83329C27.0013 6.59562 26.5097 5.40863 25.6345 4.53346C24.7593 3.65829 23.5723 3.16663 22.3347 3.16663C20.0453 3.16663 18.048 4.76663 16.56 6.47463C14.6667 4.28929 12.732 3.16663 10.8 3.16663C9.56233 3.16663 8.37535 3.65829 7.50018 4.53346C6.62501 5.40863 6.13334 6.59562 6.13334 7.83329C6.13734 8.52663 6.29734 9.21063 6.60134 9.83329H6.13334C5.4261 9.83329 4.74782 10.1142 4.24772 10.6143C3.74763 11.1144 3.46667 11.7927 3.46667 12.5V15.1666C3.46667 15.5202 3.60715 15.8594 3.8572 16.1094C4.10725 16.3595 4.44639 16.5 4.80001 16.5H28.8C29.1536 16.5 29.4928 16.3595 29.7428 16.1094C29.9929 15.8594 30.1333 15.5202 30.1333 15.1666V12.5C30.1333 11.7927 29.8524 11.1144 29.3523 10.6143C28.8522 10.1142 28.1739 9.83329 27.4667 9.83329ZM14.2107 9.83329H10.8C10.2696 9.83329 9.76087 9.62258 9.38579 9.24751C9.01072 8.87243 8.80001 8.36373 8.80001 7.83329C8.80001 7.30286 9.01072 6.79415 9.38579 6.41908C9.76087 6.04401 10.2696 5.83329 10.8 5.83329C12 5.83329 13.4667 6.83863 14.9227 8.66263C14.6307 9.11196 14.4 9.50929 14.2107 9.83329ZM22.344 9.83329H17.3547C18.5987 8.00929 20.516 5.83329 22.34 5.83329C22.8704 5.83329 23.3791 6.04401 23.7542 6.41908C24.1293 6.79415 24.34 7.30286 24.34 7.83329C24.34 8.36373 24.1293 8.87243 23.7542 9.24751C23.3791 9.62258 22.8704 9.83329 22.34 9.83329H22.344ZM18.1333 19.1666H15.4667V29.8333H18.1333V19.1666ZM12.8 19.1666H6.13334V27.1666C6.13334 27.8739 6.41429 28.5521 6.91439 29.0522C7.41449 29.5523 8.09276 29.8333 8.80001 29.8333H12.8V19.1666ZM20.8 19.1666V29.8333H24.8C25.5073 29.8333 26.1855 29.5523 26.6856 29.0522C27.1857 28.5521 27.4667 27.8739 27.4667 27.1666V19.1666H20.8Z" fill="#181C21"/>
</svg>
