<svg width="24" height="24" viewBox="0 0 24 24" fill="none" xmlns="http://www.w3.org/2000/svg">
<path fill-rule="evenodd" clip-rule="evenodd" d="M14.385 15.4461C13.037 16.5232 11.3277 17.0432 9.60821 16.8994C7.88871 16.7556 6.28955 15.9588 5.13916 14.6728C3.98877 13.3867 3.37449 11.709 3.42247 9.98415C3.47046 8.25932 4.17707 6.61834 5.39719 5.39822C6.6173 4.17811 8.25829 3.4715 9.98312 3.42351C11.7079 3.37553 13.3857 3.98981 14.6717 5.1402C15.9578 6.29058 16.7546 7.88975 16.8984 9.60924C17.0422 11.3287 16.5221 13.038 15.445 14.3861L20.601 19.5411C20.6747 19.6097 20.7338 19.6925 20.7748 19.7845C20.8158 19.8765 20.8378 19.9758 20.8396 20.0765C20.8414 20.1772 20.8229 20.2773 20.7852 20.3707C20.7474 20.4641 20.6913 20.5489 20.6201 20.6201C20.5488 20.6913 20.464 20.7475 20.3706 20.7852C20.2772 20.8229 20.1772 20.8414 20.0765 20.8397C19.9758 20.8379 19.8765 20.8158 19.7845 20.7748C19.6925 20.7339 19.6097 20.6748 19.541 20.6011L14.385 15.4461ZM6.46003 13.8841C5.72607 13.15 5.22618 12.2149 5.02354 11.1968C4.8209 10.1788 4.9246 9.1235 5.32154 8.16437C5.71848 7.20523 6.39084 6.38529 7.25364 5.80817C8.11645 5.23105 9.13097 4.92265 10.169 4.92195C11.207 4.92125 12.222 5.22828 13.0855 5.80424C13.9491 6.3802 14.6226 7.19924 15.0208 8.15784C15.419 9.11644 15.5242 10.1716 15.3229 11.1899C15.1216 12.2082 14.623 13.144 13.89 13.8791L13.885 13.8841L13.88 13.8881C12.8951 14.8707 11.5605 15.4222 10.1692 15.4214C8.77795 15.4207 7.44388 14.8678 6.46003 13.8841Z" fill="#9CA9B9"/>
</svg>
