<svg width="24" height="24" viewBox="0 0 24 24" fill="none" xmlns="http://www.w3.org/2000/svg">
<path d="M19 21H3.99998C3.58332 21 3.28732 20.821 3.11198 20.463C2.93665 20.105 2.96598 19.759 3.19998 19.425L7.89998 12.825C8.08332 12.5583 8.31665 12.3543 8.59998 12.213C8.88332 12.0717 9.19165 12.0007 9.52498 12H13.55L19.25 5.35C19.55 5 19.9167 4.904 20.35 5.062C20.7833 5.22 21 5.53266 21 6V19C21 19.55 20.8043 20.021 20.413 20.413C20.0217 20.805 19.5506 21.0007 19 21ZM7.49998 10L4.39998 14.375C4.23332 14.6083 4.01665 14.746 3.74998 14.788C3.48332 14.83 3.23332 14.7673 2.99998 14.6C2.76665 14.4327 2.62932 14.216 2.58798 13.95C2.54665 13.684 2.60898 13.434 2.77498 13.2L5.89998 8.85C6.08332 8.58333 6.31665 8.375 6.59998 8.225C6.88332 8.075 7.19165 8 7.52498 8H11.55L15.6 3.275C15.7833 3.05833 16.0083 2.94166 16.275 2.925C16.5416 2.90833 16.7833 2.99166 17 3.175C17.2166 3.35833 17.3333 3.58333 17.35 3.85C17.3666 4.11666 17.2833 4.35833 17.1 4.575L13.05 9.3C12.8666 9.53333 12.6416 9.70833 12.375 9.825C12.1083 9.94166 11.8333 10 11.55 10H7.49998Z" fill="#ED0226"/>
</svg>
