<svg width="27" height="21" viewBox="0 0 27 21" fill="none" xmlns="http://www.w3.org/2000/svg">
<path d="M14.4844 3.46875C15.0188 3.14062 15.375 2.54531 15.375 1.875C15.375 0.839062 14.5359 0 13.5 0C12.4641 0 11.625 0.839062 11.625 1.875C11.625 2.55 11.9812 3.14062 12.5156 3.46875L9.82969 8.84063C9.40312 9.69375 8.29688 9.9375 7.55156 9.34219L3.375 6C3.60938 5.68594 3.75 5.29688 3.75 4.875C3.75 3.83906 2.91094 3 1.875 3C0.839062 3 0 3.83906 0 4.875C0 5.91094 0.839062 6.75 1.875 6.75H1.90781L4.05 18.5344C4.30781 19.9594 5.55 21 7.00312 21H19.9969C21.4453 21 22.6875 19.9641 22.95 18.5344L25.0922 6.75H25.125C26.1609 6.75 27 5.91094 27 4.875C27 3.83906 26.1609 3 25.125 3C24.0891 3 23.25 3.83906 23.25 4.875C23.25 5.29688 23.3906 5.68594 23.625 6L19.4484 9.34219C18.7031 9.9375 17.5969 9.69375 17.1703 8.84063L14.4844 3.46875Z" fill="#C0C0C0"/>
</svg>
