<svg width="24" height="24" viewBox="0 0 24 24" fill="none" xmlns="http://www.w3.org/2000/svg">
<path d="M9.5 17.75C9.30109 17.75 9.11032 17.829 8.96967 17.9697C8.82902 18.1103 8.75 18.3011 8.75 18.5C8.75 18.6989 8.82902 18.8897 8.96967 19.0303C9.11032 19.171 9.30109 19.25 9.5 19.25V17.75ZM14.5 19.25C14.6989 19.25 14.8897 19.171 15.0303 19.0303C15.171 18.8897 15.25 18.6989 15.25 18.5C15.25 18.3011 15.171 18.1103 15.0303 17.9697C14.8897 17.829 14.6989 17.75 14.5 17.75V19.25ZM11.25 22C11.25 22.1989 11.329 22.3897 11.4697 22.5303C11.6103 22.671 11.8011 22.75 12 22.75C12.1989 22.75 12.3897 22.671 12.5303 22.5303C12.671 22.3897 12.75 22.1989 12.75 22H11.25ZM11.25 16V18.5H12.75V16H11.25ZM12 17.75H9.5V19.25H12V17.75ZM14.5 17.75H12V19.25H14.5V17.75ZM11.25 18.5V22H12.75V18.5H11.25Z" fill="#ED0226"/>
<path d="M8.49995 2.93595C9.97075 2.08716 11.6999 1.80196 13.3654 2.13349C15.0309 2.46502 16.519 3.39067 17.5527 4.73799C18.5863 6.08532 19.0949 7.76245 18.9838 9.45695C18.8726 11.1515 18.1493 12.7478 16.9485 13.9485C15.7478 15.1493 14.1515 15.8726 12.4569 15.9838C10.7624 16.0949 9.08532 15.5863 7.73799 14.5527C6.39067 13.519 5.46502 12.0309 5.13349 10.3654C4.80196 8.69994 5.08716 6.97075 5.93595 5.49995" stroke="#ED0226" stroke-width="1.5" stroke-linecap="round"/>
</svg>
