<svg width="32" height="32" viewBox="0 0 32 32" fill="none" xmlns="http://www.w3.org/2000/svg">
<path d="M14.6667 13.3334H17.3333C19.2187 13.3334 20.1613 13.3334 20.7467 13.9201C21.3333 14.5054 21.3333 15.4481 21.3333 17.3334V25.3334C21.3333 23.4481 21.3333 22.5054 21.92 21.9201C22.504 21.3334 23.4467 21.3334 25.3333 21.3334C27.2187 21.3334 28.1613 21.3334 28.7467 21.9201C29.3333 22.5054 29.3333 23.4481 29.3333 25.3334V29.3334H2.66666C2.66666 27.4481 2.66666 26.5054 3.25333 25.9201C3.83733 25.3334 4.78 25.3334 6.66666 25.3334C8.552 25.3334 9.49466 25.3334 10.08 25.9201C10.6667 26.5041 10.6667 27.4467 10.6667 29.3334V17.3334C10.6667 15.4481 10.6667 14.5054 11.2533 13.9201C11.8373 13.3334 12.78 13.3334 14.6667 13.3334ZM14.8613 4.03075C15.368 3.12008 15.6213 2.66675 16 2.66675C16.3787 2.66675 16.632 3.12008 17.1387 4.03075L17.2693 4.26541C17.4133 4.52408 17.4853 4.65208 17.5973 4.73741C17.7107 4.82275 17.8507 4.85475 18.1307 4.91741L18.384 4.97608C19.368 5.19875 19.86 5.30941 19.9773 5.68541C20.0947 6.06275 19.7587 6.45475 19.088 7.23875L18.9147 7.44141C18.724 7.66408 18.628 7.77475 18.5853 7.91341C18.5427 8.05208 18.5573 8.20008 18.5853 8.49741L18.612 8.76808C18.7133 9.81475 18.764 10.3387 18.4587 10.5707C18.152 10.8041 17.6907 10.5907 16.7693 10.1667L16.532 10.0574C16.2693 9.93741 16.1387 9.87608 16 9.87608C15.8613 9.87608 15.7307 9.93741 15.468 10.0574L15.2307 10.1667C14.3093 10.5907 13.848 10.8041 13.5413 10.5707C13.2347 10.3387 13.2867 9.81475 13.388 8.76808L13.4147 8.49741C13.4427 8.20008 13.4573 8.05208 13.4147 7.91341C13.372 7.77608 13.276 7.66408 13.0853 7.44141L12.912 7.23875C12.2413 6.45475 11.9053 6.06275 12.0227 5.68541C12.14 5.30941 12.632 5.19875 13.616 4.97608L13.8693 4.91741C14.1493 4.85475 14.2893 4.82408 14.4027 4.73741C14.5147 4.65208 14.5867 4.52408 14.7307 4.26541L14.8613 4.03075Z" fill="#FDA22B"/>
</svg>
