<svg width="14" height="14" viewBox="0 0 14 14" fill="none" xmlns="http://www.w3.org/2000/svg">
<path d="M6.57592 11.8493C6.52329 11.905 6.48215 11.9705 6.45484 12.0421C6.42753 12.1137 6.41459 12.1899 6.41676 12.2665C6.41893 12.3431 6.43616 12.4185 6.46747 12.4885C6.49878 12.5584 6.54356 12.6215 6.59925 12.6741C6.65495 12.7267 6.72046 12.7679 6.79205 12.7952C6.86364 12.8225 6.93991 12.8354 7.0165 12.8333C7.0931 12.8311 7.16851 12.8139 7.23845 12.7826C7.30838 12.7512 7.37146 12.7065 7.42409 12.6508L12.3824 7.40077C12.4848 7.29246 12.5419 7.14907 12.5419 7.00002C12.5419 6.85097 12.4848 6.70757 12.3824 6.59927L7.42409 1.34868C7.37181 1.29177 7.30874 1.24582 7.23855 1.21349C7.16836 1.18115 7.09244 1.16309 7.01521 1.16035C6.93799 1.15761 6.86098 1.17024 6.78867 1.1975C6.71636 1.22477 6.65019 1.26613 6.59401 1.31919C6.53782 1.37225 6.49273 1.43594 6.46137 1.50657C6.43001 1.5772 6.41299 1.65335 6.41131 1.73061C6.40963 1.80787 6.42331 1.8847 6.45157 1.95663C6.47983 2.02855 6.5221 2.09415 6.57592 2.1496L11.1563 7.00002L6.57592 11.8493Z" fill="#ED0226"/>
</svg>
