<svg width="24" height="24" viewBox="0 0 24 24" fill="none" xmlns="http://www.w3.org/2000/svg">
<path fill-rule="evenodd" clip-rule="evenodd" d="M11.9863 4.46743C10.332 2.82 8.60569 2.00229 6.94627 1.87886C5.07084 1.74172 3.41484 2.50286 2.22169 3.70629C-0.123449 6.072 -0.840021 10.3491 2.09141 13.2926C2.09981 13.3007 2.10839 13.3087 2.11712 13.3166L11.4051 21.9086C11.5636 22.0556 11.7718 22.1372 11.988 22.1372C12.2042 22.1372 12.4123 22.0556 12.5708 21.9086L21.8588 13.3166L21.8777 13.2977C24.8503 10.3663 24.132 6.08914 21.7748 3.72343C20.5783 2.52 18.9171 1.75714 17.0383 1.89257C15.3754 2.01257 13.6423 2.82343 11.9863 4.46743ZM11.4034 7.86514C11.3234 7.67904 11.1923 7.51942 11.0253 7.40479C10.8583 7.29016 10.6622 7.22522 10.4598 7.21751C10.2574 7.20979 10.057 7.25961 9.88172 7.36119C9.70647 7.46277 9.5636 7.61195 9.46969 7.79143L8.00227 10.5943H6.02569C5.74153 10.5943 5.46901 10.7072 5.26808 10.9081C5.06715 11.109 4.95427 11.3816 4.95427 11.6657C4.95427 11.9499 5.06715 12.2224 5.26808 12.4233C5.46901 12.6243 5.74153 12.7371 6.02569 12.7371H8.65026C9.04969 12.7371 9.41484 12.5143 9.59998 12.1629L10.3251 10.7794L12.1131 14.928C12.1859 15.0976 12.3012 15.2455 12.4479 15.3574C12.5946 15.4693 12.7678 15.5415 12.9506 15.5668C13.1334 15.5922 13.3196 15.5699 13.4912 15.5021C13.6629 15.4343 13.8141 15.3234 13.9303 15.18L15.912 12.7371H17.9726C18.2567 12.7371 18.5292 12.6243 18.7302 12.4233C18.9311 12.2224 19.044 11.9499 19.044 11.6657C19.044 11.3816 18.9311 11.109 18.7302 10.9081C18.5292 10.7072 18.2567 10.5943 17.9726 10.5943H15.4011C15.2415 10.5941 15.0839 10.6295 14.9398 10.698C14.7956 10.7665 14.6686 10.8664 14.568 10.9903L13.38 12.456L11.4017 7.86686L11.4034 7.86514Z" fill="#ED0226"/>
</svg>
