<svg width="32" height="32" viewBox="0 0 32 32" fill="none" xmlns="http://www.w3.org/2000/svg">
<path d="M16 2.66675C17.3186 2.66675 18.6075 3.05774 19.7038 3.79028C20.8001 4.52283 21.6546 5.56402 22.1592 6.78219C22.6638 8.00037 22.7958 9.34081 22.5386 10.634C22.2814 11.9272 21.6464 13.1151 20.7141 14.0475C19.7817 14.9798 18.5938 15.6147 17.3006 15.872C16.0074 16.1292 14.667 15.9972 13.4488 15.4926C12.2306 14.988 11.1894 14.1335 10.4569 13.0372C9.72435 11.9409 9.33335 10.652 9.33335 9.33341L9.34002 9.04408C9.41458 7.32775 10.1488 5.70645 11.3897 4.51829C12.6305 3.33014 14.2821 2.66685 16 2.66675ZM18.6667 18.6667C20.4348 18.6667 22.1305 19.3691 23.3807 20.6194C24.631 21.8696 25.3334 23.5653 25.3334 25.3334V26.6667C25.3334 27.374 25.0524 28.0523 24.5523 28.5524C24.0522 29.0525 23.3739 29.3334 22.6667 29.3334H9.33335C8.62611 29.3334 7.94783 29.0525 7.44774 28.5524C6.94764 28.0523 6.66669 27.374 6.66669 26.6667V25.3334C6.66669 23.5653 7.36907 21.8696 8.61931 20.6194C9.86955 19.3691 11.5652 18.6667 13.3334 18.6667H18.6667Z" fill="#181C21"/>
</svg>
