<svg width="12" height="12" viewBox="0 0 12 12" fill="none" xmlns="http://www.w3.org/2000/svg">
<g clip-path="url(#clip0_1_1846)">
<path d="M0.3 1.5C0.220435 1.5 0.144129 1.53161 0.087868 1.58787C0.0316071 1.64413 0 1.72044 0 1.8L0 10.2C0 10.2796 0.0316071 10.3559 0.087868 10.4121C0.144129 10.4684 0.220435 10.5 0.3 10.5H11.7C11.7796 10.5 11.8559 10.4684 11.9121 10.4121C11.9684 10.3559 12 10.2796 12 10.2V1.8C12 1.72044 11.9684 1.64413 11.9121 1.58787C11.8559 1.53161 11.7796 1.5 11.7 1.5H0.3ZM0.6 2.1H11.4V9.9H0.6V2.1Z" fill="black"/>
<path d="M8.60013 2.09952V4.09968H10.5998V2.09952H8.60013ZM10.5998 4.09968V6.09936H11.88V4.09968H10.5998ZM10.5998 6.09936H8.60013V8.09952H10.5998V6.09936ZM10.5998 8.09952V10.0994H11.88V8.09952H10.5998ZM8.60013 8.09952H6.59998V10.0994H8.60013V8.09952ZM6.59998 8.09952V6.09984H4.59982V8.09952H6.59998ZM4.59982 8.09952H2.60014V10.0997H4.59982V8.09952ZM2.60014 8.09952V6.09984H0.599976V8.09952H2.60014ZM2.60014 6.09984H4.59982V4.09968H2.60014V6.09984ZM2.60014 4.09968V2.1H0.599976V4.09968H2.60014ZM4.59982 4.09968H6.59998V2.1H4.59982V4.09968ZM6.59998 4.09968V6.09936H8.60013V4.09968H6.59998Z" fill="black"/>
</g>
<defs>
<clipPath id="clip0_1_1846">
<rect width="12" height="12" fill="white"/>
</clipPath>
</defs>
</svg>
