<svg width="25" height="24" viewBox="0 0 25 24" fill="none" xmlns="http://www.w3.org/2000/svg">
<path fill-rule="evenodd" clip-rule="evenodd" d="M11.4942 16C12.0646 16.5216 12.6793 17.0741 13.3383 17.6659C15.685 15.5541 17.4692 13.9418 18.6907 12.4591C19.8901 11.0032 20.3334 9.9202 20.3334 8.90175C20.3334 7.27976 19.0693 6 17.3834 6C16.8448 6 16.3021 6.14095 15.8144 6.40082C15.4388 6.60091 15.11 6.86415 14.8498 7.1667L13.3334 8.93008L11.817 7.1667C11.5568 6.86415 11.2279 6.60091 10.8524 6.40082C10.3646 6.14095 9.82194 6 9.28337 6C7.59743 6 6.33337 7.27976 6.33337 8.90175C6.33337 9.25574 6.38693 9.61753 6.50715 10H5.54941C4.90619 10 4.33337 9.54498 4.33337 8.90175C4.33337 6.15677 6.51137 4 9.28337 4C10.1675 4 11.0315 4.23008 11.7928 4.63572C11.9125 4.6995 12.0297 4.76762 12.144 4.83987C12.5904 5.12204 12.9933 5.46718 13.3334 5.86267C13.6735 5.46718 14.0763 5.12204 14.5227 4.83987C14.6371 4.76762 14.7542 4.6995 14.8739 4.63572C15.6353 4.23008 16.4993 4 17.3834 4C20.1554 4 22.3334 6.15677 22.3334 8.90175C22.3334 12.262 19.289 15.0015 14.6739 19.1546L14.6384 19.1865L14.017 19.7425C13.6321 20.0868 13.0357 20.0857 12.6522 19.74L12.0284 19.1776L12.017 19.1674C11.5663 18.7627 11.1306 18.3714 10.7111 17.9917C9.92211 17.2773 10.4298 16 11.4942 16Z" fill="#ED0226"/>
<path fill-rule="evenodd" clip-rule="evenodd" d="M9.49356 8.51292C9.9052 8.57972 10.2322 8.89496 10.314 9.30389L10.8931 12.1996L11.2523 11.7506C11.6318 11.2762 12.2064 11 12.814 11H14.3334C14.8857 11 15.3334 11.4477 15.3334 12C15.3334 12.5523 14.8857 13 14.3334 13H12.814L11.1142 15.1247C10.8714 15.4282 10.4747 15.5636 10.097 15.4717C9.71925 15.3798 9.42903 15.0773 9.35279 14.6961L8.87657 12.315L8.48954 12.9923C8.13345 13.6154 7.47077 14 6.75305 14H3.33337C2.78109 14 2.33337 13.5523 2.33337 13C2.33337 12.4477 2.78109 12 3.33337 12H6.75305L8.46513 9.00387C8.67204 8.64178 9.08191 8.44612 9.49356 8.51292Z" fill="#ED0226"/>
</svg>
