<svg width="33" height="32" viewBox="0 0 33 32" fill="none" xmlns="http://www.w3.org/2000/svg">
<path fill-rule="evenodd" clip-rule="evenodd" d="M14.4232 5.7286C15.5542 4.7389 17.2431 4.7389 18.3742 5.7286L26.1619 12.5428C26.7418 13.0503 27.1043 13.7615 27.174 14.5289L28.1068 24.7893C28.2645 26.5239 26.9221 28.0274 25.1805 28.0579C20.6177 28.1379 12.4568 28.2722 9.16368 28.2722C4.4766 28.2722 4.39868 28 4.39868 28L4.71516 24.5188C5.01323 24.749 5.36086 24.9904 5.76626 25.2409C7.5155 26.3216 9.8134 26.6331 11.0615 26.7225L11.0612 26.7244C11.0612 26.7244 11.3246 26.7797 13.4926 26.7598C15.2603 26.7435 17.7249 26.7153 19.4975 26.6942C20.6904 26.68 21.6036 25.6309 21.4556 24.4471L20.7282 18.6283C20.5406 17.127 19.2644 16.0004 17.7514 16.0004H15.0486C13.5354 16.0004 12.2591 17.1273 12.0717 18.6289L11.2652 25.0898C6.83676 24.8214 5.04707 22.34 4.92878 22.169L5.62333 14.5289C5.6931 13.7615 6.05553 13.0503 6.63549 12.5428L14.4232 5.7286Z" fill="#757F90"/>
</svg>
