<svg width="40" height="40" viewBox="0 0 40 40" fill="none" xmlns="http://www.w3.org/2000/svg">
<path d="M15.0317 15C14.8615 12.7929 15.3715 10.5866 16.4931 8.67807C17.6148 6.76957 19.2941 5.25049 21.3052 4.32529C23.3163 3.40009 25.5625 3.11319 27.7416 3.50321C29.9207 3.89323 31.928 4.94144 33.4933 6.50676C35.0586 8.07207 36.1068 10.0794 36.4968 12.2584C36.8868 14.4375 36.5999 16.6837 35.6747 18.6948C34.7495 20.7059 33.2305 22.3853 31.322 23.5069C29.4135 24.6285 27.2071 25.1385 25 24.9683" fill="#ED0226"/>
<path d="M36.6667 28.3334C36.6667 29.6595 36.1399 30.9312 35.2022 31.8689C34.2645 32.8066 32.9928 33.3334 31.6667 33.3334H28.3333M28.3333 33.3334L31.6667 30M28.3333 33.3334L31.6667 36.6667M3.33334 11.6667C3.33334 10.3406 3.86013 9.06886 4.79781 8.13117C5.73549 7.19349 7.00726 6.66671 8.33334 6.66671H11.6667M11.6667 6.66671L8.33334 10M11.6667 6.66671L8.33334 3.33337" stroke="#757F90" stroke-width="1.5" stroke-linecap="round" stroke-linejoin="round"/>
<path d="M14.1667 36.6667C11.2935 36.6667 8.538 35.5253 6.50635 33.4937C4.47471 31.462 3.33334 28.7065 3.33334 25.8333C3.33334 22.9602 4.47471 20.2047 6.50635 18.173C8.538 16.1414 11.2935 15 14.1667 15C17.0399 15 19.7954 16.1414 21.827 18.173C23.8586 20.2047 25 22.9602 25 25.8333C25 28.7065 23.8586 31.462 21.827 33.4937C19.7954 35.5253 17.0399 36.6667 14.1667 36.6667Z" fill="#001A41"/>
</svg>
