<svg width="128" height="128" viewBox="0 0 128 128" fill="none" xmlns="http://www.w3.org/2000/svg">
<path d="M98.6666 37.3334C106.03 37.3334 112 31.3638 112 24C112 16.6362 106.03 10.6667 98.6666 10.6667C91.3028 10.6667 85.3333 16.6362 85.3333 24C85.3333 31.3638 91.3028 37.3334 98.6666 37.3334Z" stroke="#ED0226" stroke-width="6"/>
<path d="M76.8 117.333V112.213C76.7391 106.442 75.3411 100.764 72.7158 95.6245C70.0904 90.4849 66.3093 86.024 61.6693 82.592C61.456 82.432 61.3493 82.352 61.2693 82.2827C60.068 81.3344 59.0849 80.1387 58.3866 78.7768C57.6884 77.4149 57.2914 75.9187 57.2225 74.3898C57.1537 72.8609 57.4148 71.3351 57.9879 69.916C58.561 68.4969 59.4327 67.2177 60.544 66.1653L60.9173 65.824L66.464 60.7787C75.1466 52.8907 72.5066 38.6293 61.5786 34.3787C59.6415 33.624 57.5745 33.259 55.4961 33.3048C53.4176 33.3506 51.3687 33.8061 49.4666 34.6453L46.6826 35.872C43.8026 37.136 42.368 37.7707 40.9653 38.4693C38.6293 39.6267 36.3573 40.9227 34.1653 42.336C32.848 43.1893 31.568 44.096 29.008 45.92L21.3333 51.392" stroke="#ED0226" stroke-width="6" stroke-linecap="round"/>
<path opacity="0.5" d="M48 90.6667L46.6133 92.3253C42.8735 96.8133 38.1928 100.424 32.9025 102.903C27.6123 105.381 21.842 106.666 16 106.667M85.3333 64C92.3367 65.7509 99.6633 65.7509 106.667 64" stroke="#ED0226" stroke-width="6" stroke-linecap="round"/>
</svg>
