<svg width="32" height="32" viewBox="0 0 32 32" fill="none" xmlns="http://www.w3.org/2000/svg">
<path d="M30 25H29V18C29 17.4696 28.7893 16.9609 28.4142 16.5858C28.0391 16.2107 27.5304 16 27 16H22V7C22 6.46957 21.7893 5.96086 21.4142 5.58579C21.0391 5.21071 20.5304 5 20 5H12C11.4696 5 10.9609 5.21071 10.5858 5.58579C10.2107 5.96086 10 6.46957 10 7V11H5C4.46957 11 3.96086 11.2107 3.58579 11.5858C3.21071 11.9609 3 12.4696 3 13V25H2C1.73478 25 1.48043 25.1054 1.29289 25.2929C1.10536 25.4804 1 25.7348 1 26C1 26.2652 1.10536 26.5196 1.29289 26.7071C1.48043 26.8946 1.73478 27 2 27H30C30.2652 27 30.5196 26.8946 30.7071 26.7071C30.8946 26.5196 31 26.2652 31 26C31 25.7348 30.8946 25.4804 30.7071 25.2929C30.5196 25.1054 30.2652 25 30 25ZM10 25H5V13H10V25ZM27 25H22V18H27V25Z" fill="#ED0226"/>
</svg>
