<svg width="40" height="40" viewBox="0 0 40 40" fill="none" xmlns="http://www.w3.org/2000/svg">
<g clip-path="url(#clip0_1_1616)">
<path fill-rule="evenodd" clip-rule="evenodd" d="M20 3.33325C10.795 3.33325 3.33333 10.7949 3.33333 19.9999C3.33333 29.2049 10.795 36.6666 20 36.6666C29.205 36.6666 36.6667 29.2049 36.6667 19.9999C36.6667 10.7949 29.205 3.33325 20 3.33325ZM14.1667 15.8333C14.1667 15.0672 14.3175 14.3087 14.6107 13.6009C14.9038 12.8932 15.3335 12.2501 15.8752 11.7085C16.4169 11.1668 17.0599 10.7371 17.7677 10.444C18.4754 10.1508 19.234 9.99992 20 9.99992C20.766 9.99992 21.5246 10.1508 22.2323 10.444C22.94 10.7371 23.5831 11.1668 24.1248 11.7085C24.6665 12.2501 25.0961 12.8932 25.3893 13.6009C25.6824 14.3087 25.8333 15.0672 25.8333 15.8333C25.8333 17.3803 25.2187 18.8641 24.1248 19.958C23.0308 21.052 21.5471 21.6666 20 21.6666C18.4529 21.6666 16.9692 21.052 15.8752 19.958C14.7812 18.8641 14.1667 17.3803 14.1667 15.8333ZM30.43 28.3066C29.1824 29.876 27.5963 31.1432 25.7903 32.0136C23.9842 32.884 22.0049 33.3351 20 33.3333C17.9951 33.3351 16.0158 32.884 14.2097 32.0136C12.4037 31.1432 10.8176 29.876 9.56999 28.3066C12.2717 26.3682 15.9583 24.9999 20 24.9999C24.0417 24.9999 27.7283 26.3682 30.43 28.3066Z" fill="#757F90"/>
</g>
<defs>
<clipPath id="clip0_1_1616">
<rect width="40" height="40" fill="white"/>
</clipPath>
</defs>
</svg>
