<svg width="32" height="32" viewBox="0 0 32 32" fill="none" xmlns="http://www.w3.org/2000/svg">
<g clip-path="url(#clip0_1_1754)">
<path d="M16 2.66675C23.364 2.66675 29.3333 8.63608 29.3333 16.0001C29.3333 23.3641 23.364 29.3334 16 29.3334C8.63599 29.3334 2.66666 23.3641 2.66666 16.0001C2.66666 8.63608 8.63599 2.66675 16 2.66675ZM16 8.00008C15.6464 8.00008 15.3072 8.14056 15.0572 8.39061C14.8071 8.64065 14.6667 8.97979 14.6667 9.33341V16.0001C14.6667 16.3537 14.8073 16.6928 15.0573 16.9427L19.0573 20.9427C19.3088 21.1856 19.6456 21.32 19.9952 21.317C20.3448 21.3139 20.6792 21.1737 20.9264 20.9265C21.1736 20.6793 21.3138 20.3449 21.3169 19.9953C21.3199 19.6457 21.1855 19.3089 20.9427 19.0574L17.3333 15.4481V9.33341C17.3333 8.97979 17.1928 8.64065 16.9428 8.39061C16.6927 8.14056 16.3536 8.00008 16 8.00008Z" fill="#23518D"/>
</g>
<defs>
<clipPath id="clip0_1_1754">
<rect width="32" height="32" fill="white"/>
</clipPath>
</defs>
</svg>
