<svg width="24" height="24" viewBox="0 0 24 24" fill="none" xmlns="http://www.w3.org/2000/svg">
<path d="M11.2869 1.23431V8.60703C11.2869 9.89274 11.8894 10.5056 13.1751 10.5056H20.4476V19.626C20.4476 21.7153 19.413 22.77 17.3336 22.77H6.66643C4.59729 22.77 3.55243 21.7256 3.55243 19.626V4.38817C3.55243 2.29889 4.59729 1.23431 6.66643 1.23431H11.2869ZM7.76829 14.115H7.09843C6.72857 14.115 6.42857 14.415 6.42857 14.7849V19.4735C6.42857 19.8429 6.72857 20.1429 7.09843 20.1429H7.76829C8.13814 20.1429 8.43772 19.8429 8.43772 19.473V14.7845C8.43772 14.415 8.13771 14.115 7.76829 14.115ZM10.782 12.1059H10.1121C9.74229 12.1059 9.44272 12.4059 9.44272 12.7753V19.473C9.44272 19.8429 9.74271 20.1429 10.1121 20.1429H10.782C11.1519 20.1429 11.4519 19.8429 11.4519 19.473V12.7757C11.4519 12.4059 11.1519 12.1059 10.782 12.1059ZM13.7961 16.1246H13.1263C12.7564 16.1246 12.4564 16.4246 12.4564 16.7945V19.4735C12.4564 19.8433 12.7564 20.1433 13.1263 20.1433H13.7961C14.166 20.1433 14.4656 19.8433 14.4656 19.4735V16.7949C14.4656 16.4246 14.1656 16.1246 13.7961 16.1246ZM12.6527 1.34489C13.0749 1.41517 13.497 1.7066 13.9586 2.18874L19.5034 7.8236C19.9753 8.3156 20.2667 8.7176 20.337 9.12946H13.2056C12.8439 9.12946 12.6527 8.9486 12.6527 8.58688V1.34489Z" fill="#ED0226"/>
</svg>
