<svg width="35" height="32" viewBox="0 0 35 32" fill="none" xmlns="http://www.w3.org/2000/svg">
<path d="M10.5893 16C8.66071 16.0595 7.08333 16.8214 5.85714 18.2857H3.46429C2.4881 18.2857 1.66667 18.0446 1 17.5625C0.333333 17.0804 0 16.375 0 15.4464C0 11.244 0.738095 9.14286 2.21429 9.14286C2.28571 9.14286 2.54464 9.26786 2.99107 9.51786C3.4375 9.76786 4.01786 10.0208 4.73214 10.2768C5.44643 10.5327 6.15476 10.6607 6.85714 10.6607C7.65476 10.6607 8.44643 10.5238 9.23214 10.25C9.17262 10.6905 9.14286 11.0833 9.14286 11.4286C9.14286 13.0833 9.625 14.6071 10.5893 16ZM29.7143 27.375C29.7143 28.8036 29.2798 29.9315 28.4107 30.7589C27.5417 31.5863 26.3869 32 24.9464 32H9.33928C7.89881 32 6.74405 31.5863 5.875 30.7589C5.00595 29.9315 4.57143 28.8036 4.57143 27.375C4.57143 26.744 4.59226 26.128 4.63393 25.5268C4.67559 24.9256 4.75893 24.2768 4.88393 23.5804C5.00893 22.8839 5.16667 22.2381 5.35714 21.6429C5.54762 21.0476 5.80357 20.4673 6.125 19.9018C6.44643 19.3363 6.81548 18.8542 7.23214 18.4554C7.64881 18.0565 8.15774 17.7381 8.75893 17.5C9.36012 17.2619 10.0238 17.1429 10.75 17.1429C10.869 17.1429 11.125 17.2708 11.5179 17.5268C11.9107 17.7827 12.3452 18.0685 12.8214 18.3839C13.2976 18.6994 13.9345 18.9851 14.7321 19.2411C15.5298 19.497 16.3333 19.625 17.1429 19.625C17.9524 19.625 18.756 19.497 19.5536 19.2411C20.3512 18.9851 20.9881 18.6994 21.4643 18.3839C21.9405 18.0685 22.375 17.7827 22.7679 17.5268C23.1607 17.2708 23.4167 17.1429 23.5357 17.1429C24.2619 17.1429 24.9256 17.2619 25.5268 17.5C26.128 17.7381 26.6369 18.0565 27.0536 18.4554C27.4702 18.8542 27.8393 19.3363 28.1607 19.9018C28.4821 20.4673 28.7381 21.0476 28.9286 21.6429C29.119 22.2381 29.2768 22.8839 29.4018 23.5804C29.5268 24.2768 29.6101 24.9256 29.6518 25.5268C29.6935 26.128 29.7143 26.744 29.7143 27.375ZM11.4286 4.57143C11.4286 5.83333 10.9821 6.91071 10.0893 7.80357C9.19643 8.69643 8.11905 9.14286 6.85714 9.14286C5.59524 9.14286 4.51786 8.69643 3.625 7.80357C2.73214 6.91071 2.28571 5.83333 2.28571 4.57143C2.28571 3.30952 2.73214 2.23214 3.625 1.33929C4.51786 0.446429 5.59524 0 6.85714 0C8.11905 0 9.19643 0.446429 10.0893 1.33929C10.9821 2.23214 11.4286 3.30952 11.4286 4.57143ZM24 11.4286C24 13.3214 23.3304 14.9375 21.9911 16.2768C20.6518 17.6161 19.0357 18.2857 17.1429 18.2857C15.25 18.2857 13.6339 17.6161 12.2946 16.2768C10.9554 14.9375 10.2857 13.3214 10.2857 11.4286C10.2857 9.53572 10.9554 7.91964 12.2946 6.58036C13.6339 5.24107 15.25 4.57143 17.1429 4.57143C19.0357 4.57143 20.6518 5.24107 21.9911 6.58036C23.3304 7.91964 24 9.53572 24 11.4286ZM34.2857 15.4464C34.2857 16.375 33.9524 17.0804 33.2857 17.5625C32.619 18.0446 31.7976 18.2857 30.8214 18.2857H28.4286C27.2024 16.8214 25.625 16.0595 23.6964 16C24.6607 14.6071 25.1429 13.0833 25.1429 11.4286C25.1429 11.0833 25.1131 10.6905 25.0536 10.25C25.8393 10.5238 26.631 10.6607 27.4286 10.6607C28.131 10.6607 28.8393 10.5327 29.5536 10.2768C30.2679 10.0208 30.8482 9.76786 31.2946 9.51786C31.7411 9.26786 32 9.14286 32.0714 9.14286C33.5476 9.14286 34.2857 11.244 34.2857 15.4464ZM32 4.57143C32 5.83333 31.5536 6.91071 30.6607 7.80357C29.7679 8.69643 28.6905 9.14286 27.4286 9.14286C26.1667 9.14286 25.0893 8.69643 24.1964 7.80357C23.3036 6.91071 22.8571 5.83333 22.8571 4.57143C22.8571 3.30952 23.3036 2.23214 24.1964 1.33929C25.0893 0.446429 26.1667 0 27.4286 0C28.6905 0 29.7679 0.446429 30.6607 1.33929C31.5536 2.23214 32 3.30952 32 4.57143Z" fill="#23518D"/>
</svg>
