<svg width="33" height="32" viewBox="0 0 33 32" fill="none" xmlns="http://www.w3.org/2000/svg">
<path d="M16.5999 19C19.9136 19 22.5999 16.3137 22.5999 13C22.5999 9.68629 19.9136 7 16.5999 7C13.2861 7 10.5999 9.68629 10.5999 13C10.5999 14.7377 11.3386 16.3029 12.5191 17.3986C11.6455 17.2505 10.6272 16.9396 9.73405 16.4632C8.70082 15.9122 7.98095 15.2256 7.71424 14.4388C7.63897 13.9703 7.59985 13.4897 7.59985 13C7.59985 8.02944 11.6293 4 16.5999 4C21.5704 4 25.5999 8.02944 25.5999 13C25.5999 15.7779 24.3414 18.2618 22.3634 19.9127C23.2607 20.2315 24.0972 20.637 24.8506 21.134C26.604 22.2909 27.8799 23.9347 28.3742 26.017C28.6293 27.0917 27.7044 28 26.5999 28C19.9332 28 13.2665 28 6.59985 28C5.49528 28 4.57037 27.0917 4.8255 26.017C5.31983 23.9347 6.59575 22.2909 8.34915 21.134C9.10247 20.637 9.93899 20.2315 10.8363 19.9127C10.0983 19.2968 9.46055 18.5649 8.95089 17.7451L9.02816 17.7868C10.5396 18.5929 12.3479 19 13.5999 19H16.5999Z" fill="#757F90"/>
</svg>
