<svg width="33" height="33" viewBox="0 0 33 33" fill="none" xmlns="http://www.w3.org/2000/svg">
<path fill-rule="evenodd" clip-rule="evenodd" d="M4.95898 8.67021C4.95898 7.57812 5.60736 6.63747 6.54017 6.2122C7.02078 6.67832 7.67763 7.17556 8.57482 7.67285C10.5393 8.76173 12.1878 9.02455 13.0519 9.08034V15.4757L16.1068 17.213C16.5053 17.4396 16.9937 17.4396 17.3922 17.213L20.4463 15.4761V7.37021H13.0519V7.60552C10.2796 7.45843 9.17964 6.62642 8.74367 5.97021H25.84C27.3312 5.97021 28.54 7.17905 28.54 8.67022V10.9131C28.54 11.884 28.0187 12.7801 27.1748 13.2601L18.0843 18.43C17.811 18.5854 17.5175 18.6895 17.217 18.7422C19.5989 18.9532 21.4665 20.9538 21.4665 23.3905C21.4665 25.9679 19.3772 28.0572 16.7999 28.0572C14.2225 28.0572 12.1332 25.9679 12.1332 23.3905C12.1332 20.9757 13.9673 18.9894 16.3184 18.7484C16.0053 18.6978 15.699 18.5916 15.4147 18.43L6.32422 13.2601C5.48026 12.7801 4.95898 11.884 4.95898 10.9131V8.67021Z" fill="#181C21"/>
</svg>
