<svg width="33" height="32" viewBox="0 0 33 32" fill="none" xmlns="http://www.w3.org/2000/svg">
<g clip-path="url(#clip0_763_4064)">
<path d="M30.8679 16C30.8679 16.3536 30.7274 16.6928 30.4774 16.9428C30.2273 17.1929 29.8882 17.3333 29.5346 17.3333H25.7079C25.0189 17.3311 24.3421 17.1519 23.7423 16.8129C23.1425 16.4739 22.6399 15.9864 22.2826 15.3973L20.4586 12.3693L18.4759 17.2C18.4096 17.3621 18.3119 17.5094 18.1886 17.6338C18.0653 17.7581 17.9187 17.8569 17.7572 17.9246C17.5957 17.9922 17.4224 18.0274 17.2473 18.0281C17.0722 18.0288 16.8986 17.995 16.7366 17.9287C16.5745 17.8623 16.4271 17.7647 16.3028 17.6414C16.1785 17.518 16.0797 17.3714 16.012 17.2099C15.9444 17.0484 15.9092 16.8751 15.9085 16.7C15.9078 16.5249 15.9416 16.3514 16.0079 16.1893L18.2746 10.6667H15.6893L12.9373 17.376C12.8181 17.6659 12.8049 17.9886 12.9 18.2873C12.9951 18.586 13.1924 18.8416 13.4573 19.0093L19.5799 22.876C19.7697 22.9959 19.9262 23.1618 20.0348 23.3583C20.1435 23.5548 20.2007 23.7755 20.2013 24V30.6667C20.2013 31.0203 20.0608 31.3594 19.8107 31.6095C19.5607 31.8595 19.2215 32 18.8679 32C18.5143 32 18.1752 31.8595 17.9251 31.6095C17.6751 31.3594 17.5346 31.0203 17.5346 30.6667V24.7347L12.0333 21.268C11.2368 20.7656 10.6432 19.9983 10.3569 19.1013C10.0706 18.2042 10.1099 17.2349 10.4679 16.364L12.8066 10.6667H9.84925C9.60165 10.6658 9.35874 10.7342 9.14806 10.8643C8.93738 10.9944 8.76735 11.1809 8.65725 11.4027L6.72792 15.2627C6.64965 15.4194 6.54128 15.5591 6.409 15.674C6.27672 15.7888 6.12312 15.8765 5.95697 15.9319C5.79081 15.9874 5.61536 16.0096 5.44062 15.9972C5.26589 15.9849 5.0953 15.9383 4.93859 15.86C4.78188 15.7817 4.64212 15.6734 4.52729 15.5411C4.41246 15.4088 4.3248 15.2552 4.26934 15.089C4.21387 14.9229 4.19167 14.7474 4.20401 14.5727C4.21635 14.398 4.26299 14.2274 4.34125 14.0707L6.27192 10.204C6.60313 9.5394 7.11371 8.98075 7.74591 8.59125C8.37812 8.20175 9.1067 7.99695 9.84925 8H18.6799C19.3694 8.00205 20.0469 8.18131 20.6472 8.52057C21.2475 8.85982 21.7505 9.34769 22.1079 9.93734L24.5666 14.0213C24.6857 14.2176 24.8532 14.38 25.053 14.493C25.2529 14.6059 25.4784 14.6658 25.7079 14.6667H29.5346C29.8882 14.6667 30.2273 14.8071 30.4774 15.0572C30.7274 15.3072 30.8679 15.6464 30.8679 16ZM10.7013 22.4187C10.5387 22.3536 10.3649 22.3212 10.1898 22.3233C10.0147 22.3254 9.84172 22.362 9.68076 22.431C9.5198 22.5 9.37401 22.5999 9.2517 22.7253C9.12939 22.8506 9.03296 22.9988 8.96792 23.1613C8.86991 23.4096 8.69923 23.6225 8.47822 23.7721C8.2572 23.9218 7.99616 24.0012 7.72925 24H4.20125C3.84763 24 3.50849 24.1405 3.25844 24.3905C3.0084 24.6406 2.86792 24.9797 2.86792 25.3333C2.86792 25.687 3.0084 26.0261 3.25844 26.2761C3.50849 26.5262 3.84763 26.6667 4.20125 26.6667H7.72925C8.52938 26.6692 9.31171 26.4306 9.97429 25.9821C10.6369 25.5335 11.149 24.8958 11.4439 24.152C11.509 23.9894 11.5414 23.8156 11.5393 23.6405C11.5372 23.4654 11.5006 23.2925 11.4316 23.1315C11.3626 22.9706 11.2626 22.8248 11.1373 22.7024C11.012 22.5801 10.8638 22.4837 10.7013 22.4187ZM20.2013 6.66667C20.8605 6.66667 21.505 6.47117 22.0532 6.1049C22.6013 5.73863 23.0286 5.21803 23.2809 4.60895C23.5331 3.99986 23.5992 3.32964 23.4705 2.68303C23.3419 2.03643 23.0245 1.44249 22.5583 0.976312C22.0921 0.510137 21.4982 0.192668 20.8516 0.0640506C20.205 -0.0645668 19.5347 0.00144428 18.9256 0.253736C18.3166 0.506029 17.796 0.93327 17.4297 1.48143C17.0634 2.0296 16.8679 2.67406 16.8679 3.33333C16.8679 4.21739 17.2191 5.06524 17.8442 5.69036C18.4694 6.31548 19.3172 6.66667 20.2013 6.66667Z" fill="#757F90"/>
</g>
<defs>
<clipPath id="clip0_763_4064">
<rect width="32" height="32" fill="white" transform="translate(0.199951)"/>
</clipPath>
</defs>
</svg>
