<svg width="52" height="52" viewBox="0 0 52 52" fill="none" xmlns="http://www.w3.org/2000/svg">
<circle cx="26" cy="26" r="26" fill="#ED0226"/>
<g clip-path="url(#clip0_17_26018)">
<path d="M24 36.6666C24 37.197 24.2108 37.7057 24.5858 38.0808C24.9609 38.4559 25.4696 38.6666 26 38.6666C26.5305 38.6666 27.0392 38.4559 27.4143 38.0808C27.7893 37.7057 28 37.197 28 36.6666V27.9999H36.6667C37.1971 27.9999 37.7058 27.7892 38.0809 27.4141C38.456 27.0391 38.6667 26.5304 38.6667 25.9999C38.6667 25.4695 38.456 24.9608 38.0809 24.5857C37.7058 24.2106 37.1971 23.9999 36.6667 23.9999H28V15.3333C28 14.8028 27.7893 14.2941 27.4143 13.919C27.0392 13.544 26.5305 13.3333 26 13.3333C25.4696 13.3333 24.9609 13.544 24.5858 13.919C24.2108 14.2941 24 14.8028 24 15.3333V23.9999H15.3334C14.8029 23.9999 14.2942 24.2106 13.9192 24.5857C13.5441 24.9608 13.3334 25.4695 13.3334 25.9999C13.3334 26.5304 13.5441 27.0391 13.9192 27.4141C14.2942 27.7892 14.8029 27.9999 15.3334 27.9999H24V36.6666Z" fill="white"/>
</g>
<defs>
<clipPath id="clip0_17_26018">
<rect width="32" height="32" fill="white" transform="translate(10 10)"/>
</clipPath>
</defs>
</svg>
