<svg width="24" height="24" viewBox="0 0 24 24" fill="none" xmlns="http://www.w3.org/2000/svg">
<path d="M11.273 20.313C11.1828 20.4085 11.1122 20.5208 11.0654 20.6435C11.0186 20.7662 10.9964 20.897 11.0001 21.0283C11.0039 21.1596 11.0334 21.2889 11.0871 21.4088C11.1408 21.5286 11.2175 21.6368 11.313 21.727C11.4085 21.8172 11.5208 21.8877 11.6435 21.9346C11.7662 21.9814 11.897 22.0036 12.0283 21.9998C12.1596 21.9961 12.2889 21.9666 12.4088 21.9129C12.5286 21.8592 12.6368 21.7825 12.727 21.687L21.227 12.687C21.4025 12.5013 21.5003 12.2555 21.5003 12C21.5003 11.7445 21.4025 11.4987 21.227 11.313L12.727 2.31199C12.6374 2.21443 12.5293 2.13565 12.4089 2.08023C12.2886 2.0248 12.1585 1.99384 12.0261 1.98913C11.8937 1.98443 11.7617 2.00608 11.6377 2.05283C11.5138 2.09957 11.4003 2.17048 11.304 2.26144C11.2077 2.35239 11.1304 2.46158 11.0766 2.58265C11.0229 2.70373 10.9937 2.83428 10.9908 2.96673C10.9879 3.09918 11.0114 3.23088 11.0598 3.35418C11.1083 3.47748 11.1807 3.58993 11.273 3.68499L19.125 12L11.273 20.313Z" fill="#9CA9B9"/>
</svg>
