<svg width="16" height="16" viewBox="0 0 16 16" fill="none" xmlns="http://www.w3.org/2000/svg">
<path fill-rule="evenodd" clip-rule="evenodd" d="M9.39052 2.3334C9.91122 1.8127 10.7554 1.8127 11.2761 2.3334L13.6667 4.72392C14.1874 5.24462 14.1874 6.08884 13.6667 6.60954L11.8644 8.41184C11.803 8.3898 11.7402 8.36457 11.6762 8.33601C11.6031 8.30341 10.6667 7.66675 10.4114 7.35428L8.33334 5.27619L3.33333 10.2762V12.6667H5.72386L9.77692 8.61367C10.0874 8.92878 10.4603 9.20627 10.8575 9.41868L6.56904 13.7072C6.3815 13.8947 6.12715 14.0001 5.86193 14.0001H3.33333C2.59695 14.0001 2 13.4031 2 12.6667V10.1381C2 9.87292 2.10536 9.61856 2.29289 9.43103L9.39052 2.3334ZM12.7239 5.66673L11.6667 6.72391L9.27615 4.33338L10.3333 3.2762L12.7239 5.66673Z" fill="#181C21"/>
</svg>
