<svg width="24" height="24" viewBox="0 0 24 24" fill="none" xmlns="http://www.w3.org/2000/svg">
<path d="M21.45 11.227H20.06C19.8783 9.33656 19.0445 7.56824 17.7016 6.22534C16.3587 4.88245 14.5904 4.04866 12.7 3.86699V2.47699C12.7 2.27808 12.621 2.08731 12.4803 1.94666C12.3397 1.80601 12.1489 1.72699 11.95 1.72699C11.7511 1.72699 11.5603 1.80601 11.4197 1.94666C11.279 2.08731 11.2 2.27808 11.2 2.47699V3.86699C9.31784 4.05774 7.56021 4.89576 6.22707 6.23801C4.89393 7.58027 4.06792 9.34357 3.89 11.227H2.5C2.40151 11.227 2.30398 11.2464 2.21299 11.2841C2.12199 11.3218 2.03931 11.377 1.96967 11.4467C1.90003 11.5163 1.84478 11.599 1.80709 11.69C1.7694 11.781 1.75 11.8785 1.75 11.977C1.75 12.0755 1.7694 12.173 1.80709 12.264C1.84478 12.355 1.90003 12.4377 1.96967 12.5073C2.03931 12.577 2.12199 12.6322 2.21299 12.6699C2.30398 12.7076 2.40151 12.727 2.5 12.727H3.89C4.07167 14.6174 4.90546 16.3857 6.24835 17.7286C7.59125 19.0715 9.35957 19.9053 11.25 20.087V21.477C11.25 21.6759 11.329 21.8667 11.4697 22.0073C11.6103 22.148 11.8011 22.227 12 22.227C12.1989 22.227 12.3897 22.148 12.5303 22.0073C12.671 21.8667 12.75 21.6759 12.75 21.477V20.087C14.6397 19.9035 16.407 19.0691 17.7496 17.7265C19.0921 16.384 19.9265 14.6167 20.11 12.727H21.5C21.5985 12.727 21.696 12.7076 21.787 12.6699C21.878 12.6322 21.9607 12.577 22.0303 12.5073C22.1 12.4377 22.1552 12.355 22.1929 12.264C22.2306 12.173 22.25 12.0755 22.25 11.977C22.25 11.8785 22.2306 11.781 22.1929 11.69C22.1552 11.599 22.1 11.5163 22.0303 11.4467C21.9607 11.377 21.878 11.3218 21.787 11.2841C21.696 11.2464 21.5985 11.227 21.5 11.227H21.45ZM11.95 18.617C10.6367 18.617 9.35296 18.2276 8.26101 17.4979C7.16907 16.7683 6.31801 15.7313 5.81544 14.518C5.31287 13.3047 5.18138 11.9696 5.43759 10.6816C5.69379 9.39356 6.32619 8.21042 7.25481 7.2818C8.18343 6.35318 9.36657 5.72078 10.6546 5.46458C11.9426 5.20837 13.2777 5.33986 14.491 5.84243C15.7043 6.345 16.7413 7.19606 17.471 8.288C18.2006 9.37995 18.59 10.6637 18.59 11.977C18.59 13.7389 17.8908 15.4289 16.6458 16.6757C15.4008 17.9225 13.712 18.6243 11.95 18.627V18.617Z" fill="#757F90"/>
<path d="M16.48 11.987C16.48 12.8853 16.2135 13.7635 15.7142 14.5103C15.2149 15.2571 14.5053 15.839 13.6751 16.1823C12.8449 16.5257 11.9316 16.615 11.0506 16.439C10.1697 16.263 9.36076 15.8296 8.72622 15.1937C8.09169 14.5578 7.66009 13.7479 7.48605 12.8665C7.312 11.9852 7.40333 11.072 7.74849 10.2426C8.09365 9.41325 8.67711 8.70489 9.42502 8.20723C10.1729 7.70958 11.0517 7.44499 11.95 7.44697C12.5458 7.44697 13.1356 7.56447 13.6859 7.79275C14.2362 8.02103 14.736 8.3556 15.1568 8.77731C15.5775 9.19902 15.911 9.69958 16.1381 10.2503C16.3651 10.8011 16.4813 11.3912 16.48 11.987Z" fill="#757F90"/>
</svg>
