<svg width="24" height="24" viewBox="0 0 24 24" fill="none" xmlns="http://www.w3.org/2000/svg">
<path fill-rule="evenodd" clip-rule="evenodd" d="M14.0858 3.49997C14.8668 2.71892 16.1332 2.71892 16.9142 3.49997L20.5 7.08576C21.281 7.86681 21.281 9.13314 20.5 9.91418L17.7965 12.6176C17.7045 12.5846 17.6104 12.5467 17.5143 12.5039C17.4047 12.455 16 11.5 15.6171 11.0313L12.5 7.91417L5 15.4142V19H8.58579L14.6654 12.9204C15.1311 13.393 15.6904 13.8093 16.2863 14.1279L9.85355 20.5606C9.57225 20.8419 9.19072 21 8.79289 21H5C3.89543 21 3 20.1045 3 19V15.2071C3 14.8093 3.15804 14.4277 3.43934 14.1464L14.0858 3.49997ZM19.0858 8.49997L17.5 10.0857L13.9142 6.49995L15.5 4.91419L19.0858 8.49997Z" fill="#9CA9B9"/>
</svg>
