<svg width="24" height="24" viewBox="0 0 24 24" fill="none" xmlns="http://www.w3.org/2000/svg">
<path d="M18.5 7C19.8807 7 21 5.88071 21 4.5C21 3.11929 19.8807 2 18.5 2C17.1193 2 16 3.11929 16 4.5C16 5.88071 17.1193 7 18.5 7Z" stroke="#ED0226" stroke-width="1.5"/>
<path d="M14.4 22V21.04C14.3886 19.9579 14.1265 18.8933 13.6342 17.9296C13.142 16.9659 12.433 16.1295 11.563 15.486C11.523 15.456 11.503 15.441 11.488 15.428C11.2628 15.2502 11.0784 15.026 10.9475 14.7707C10.8166 14.5153 10.7421 14.2348 10.7292 13.9481C10.7163 13.6614 10.7653 13.3753 10.8727 13.1092C10.9802 12.8432 11.1436 12.6033 11.352 12.406L11.422 12.342L12.462 11.396C14.09 9.917 13.595 7.243 11.546 6.446C11.1828 6.30449 10.7952 6.23606 10.4055 6.24464C10.0158 6.25322 9.63163 6.33864 9.275 6.496L8.753 6.726C8.213 6.963 7.944 7.082 7.681 7.213C7.243 7.43 6.817 7.673 6.406 7.938C6.159 8.098 5.919 8.268 5.439 8.61L4 9.636" stroke="#ED0226" stroke-width="1.5" stroke-linecap="round"/>
<path opacity="0.5" d="M9 17L8.74 17.311C8.03878 18.1525 7.16114 18.8296 6.16922 19.2942C5.17731 19.7589 4.09537 19.9999 3 20M16 12C17.3131 12.3283 18.6869 12.3283 20 12" stroke="#ED0226" stroke-width="1.5" stroke-linecap="round"/>
</svg>
