<svg width="32" height="32" viewBox="0 0 32 32" fill="none" xmlns="http://www.w3.org/2000/svg">
<path d="M6.85926 12.9989L6.85929 12.9989L22.4044 5.59631C24.9556 4.38223 27.6177 7.04551 26.4038 9.5954C26.4038 9.59543 26.4038 9.59546 26.4038 9.59549L19.0012 25.1407L19.0011 25.1408C17.8633 27.5304 14.4134 27.383 13.4831 24.905C13.483 24.9049 13.483 24.9048 13.4829 24.9046L12.1137 21.2517L12.1136 21.2514C11.9967 20.9397 11.8143 20.6566 11.5789 20.4211L10.8718 21.1282L11.5789 20.4211C11.3435 20.1857 11.0604 20.0034 10.7486 19.8864L10.7484 19.8863L7.09644 18.517L7.09627 18.5169C4.61735 17.588 4.46929 14.1369 6.85926 12.9989Z" fill="#ED0226" stroke="white" stroke-width="2"/>
</svg>
