<svg width="27" height="24" viewBox="0 0 27 24" fill="none" xmlns="http://www.w3.org/2000/svg">
<path d="M14.4844 4.96875C15.0187 4.64062 15.375 4.04531 15.375 3.375C15.375 2.33906 14.5359 1.5 13.5 1.5C12.4641 1.5 11.625 2.33906 11.625 3.375C11.625 4.05 11.9813 4.64062 12.5156 4.96875L9.82969 10.3406C9.40312 11.1938 8.29688 11.4375 7.55156 10.8422L3.375 7.5C3.60938 7.18594 3.75 6.79688 3.75 6.375C3.75 5.33906 2.91094 4.5 1.875 4.5C0.839062 4.5 0 5.33906 0 6.375C0 7.41094 0.839062 8.25 1.875 8.25H1.90781L4.05 20.0344C4.30781 21.4594 5.55 22.5 7.00312 22.5H19.9969C21.4453 22.5 22.6875 21.4641 22.95 20.0344L25.0922 8.25H25.125C26.1609 8.25 27 7.41094 27 6.375C27 5.33906 26.1609 4.5 25.125 4.5C24.0891 4.5 23.25 5.33906 23.25 6.375C23.25 6.79688 23.3906 7.18594 23.625 7.5L19.4484 10.8422C18.7031 11.4375 17.5969 11.1938 17.1703 10.3406L14.4844 4.96875Z" fill="#F5E21E"/>
</svg>
