<svg width="24" height="24" viewBox="0 0 24 24" fill="none" xmlns="http://www.w3.org/2000/svg">
<path d="M17 4C17 4.53043 16.7893 5.03914 16.4142 5.41421C16.0391 5.78929 15.5304 6 15 6C14.4696 6 13.9609 5.78929 13.5858 5.41421C13.2107 5.03914 13 4.53043 13 4C13 3.46957 13.2107 2.96086 13.5858 2.58579C13.9609 2.21071 14.4696 2 15 2C15.5304 2 16.0391 2.21071 16.4142 2.58579C16.7893 2.96086 17 3.46957 17 4Z" fill="#ED0226"/>
<path fill-rule="evenodd" clip-rule="evenodd" d="M6.20999 6.04699C6.89676 5.61779 7.67719 5.36116 8.48465 5.29899C9.29211 5.23682 10.1026 5.37097 10.847 5.68999C11.1199 5.80696 11.36 5.98904 11.5463 6.22029C11.7326 6.45155 11.8593 6.72494 11.9155 7.01653C11.9716 7.30812 11.9555 7.60902 11.8684 7.89292C11.7813 8.17681 11.626 8.43503 11.416 8.64499L9.76199 10.299C9.67933 10.3815 9.61478 10.4804 9.57248 10.5893C9.53018 10.6981 9.51105 10.8147 9.51632 10.9313C9.52159 11.048 9.55114 11.1624 9.60309 11.267C9.65503 11.3716 9.72822 11.4642 9.81799 11.539L10.815 12.369C11.1078 12.6131 11.3433 12.9186 11.5049 13.2639C11.6665 13.6092 11.7501 13.9858 11.75 14.367V16C11.75 16.1989 11.671 16.3897 11.5303 16.5303C11.3897 16.671 11.1989 16.75 11 16.75C10.8011 16.75 10.6103 16.671 10.4697 16.5303C10.329 16.3897 10.25 16.1989 10.25 16V14.367C10.2501 14.2056 10.2147 14.0461 10.1463 13.8999C10.0778 13.7537 9.97803 13.6243 9.85399 13.521L8.85799 12.691C8.60799 12.4829 8.40411 12.225 8.25936 11.9338C8.11461 11.6425 8.03217 11.3243 8.01731 10.9993C8.00244 10.6744 8.05547 10.35 8.17301 10.0467C8.29056 9.74345 8.47004 9.46801 8.69999 9.23799L10.354 7.58399C10.3907 7.54731 10.4179 7.50218 10.4331 7.45256C10.4483 7.40294 10.451 7.35035 10.4412 7.2994C10.4313 7.24846 10.4091 7.20071 10.3764 7.16036C10.3438 7.12001 10.3018 7.08829 10.254 7.06799C9.73229 6.84439 9.16422 6.75034 8.59829 6.79387C8.03236 6.83741 7.48536 7.01723 7.00399 7.31799L4.89799 8.63699C4.81447 8.68919 4.72149 8.72443 4.62435 8.74069C4.52721 8.75696 4.42782 8.75393 4.33185 8.73178C4.23588 8.70964 4.14521 8.6688 4.06502 8.61162C3.98483 8.55443 3.91669 8.48201 3.86449 8.39849C3.75907 8.22981 3.72497 8.02616 3.7697 7.83234C3.81442 7.63853 3.93431 7.47041 4.10299 7.36499L6.20999 6.04699Z" fill="#ED0226"/>
<path d="M3.08698 22.0002H19.489C19.8367 21.9997 20.1806 21.927 20.4988 21.7866C20.817 21.6463 21.1026 21.4414 21.3374 21.1849C21.5723 20.9284 21.7513 20.6259 21.8631 20.2966C21.9749 19.9673 22.0171 19.6184 21.987 19.2719C21.9569 18.9254 21.8552 18.589 21.6883 18.2839C21.5213 17.9788 21.2929 17.7117 21.0173 17.4996C20.7417 17.2874 20.4251 17.1348 20.0875 17.0514C19.7499 16.968 19.3986 16.9557 19.056 17.0152L18.893 17.0442L20.033 9.00018V8.99718C20.086 8.64718 20.118 8.44418 20.157 8.29818C20.1666 8.25864 20.18 8.22013 20.197 8.18318L20.203 8.17118L20.205 8.17018L20.215 8.16318C20.2514 8.14419 20.2896 8.12879 20.329 8.11718C20.474 8.07118 20.675 8.03018 21.024 7.96018L22.147 7.73518C22.2463 7.71885 22.3413 7.68268 22.4264 7.62885C22.5115 7.57501 22.5848 7.5046 22.6421 7.42182C22.6993 7.33903 22.7394 7.24557 22.7597 7.14699C22.7801 7.04841 22.7805 6.94674 22.7607 6.84803C22.741 6.74932 22.7016 6.6556 22.6448 6.57244C22.5881 6.48929 22.5152 6.4184 22.4305 6.36401C22.3458 6.30962 22.251 6.27284 22.1518 6.25586C22.0526 6.23888 21.951 6.24205 21.853 6.26518L20.696 6.49518C20.393 6.55718 20.107 6.61418 19.873 6.68918C19.5871 6.77082 19.3271 6.92478 19.118 7.13618C18.891 7.37418 18.778 7.64618 18.708 7.91218C18.644 8.14918 18.601 8.43718 18.555 8.74418L18.55 8.77818L17.34 17.3162L2.89998 19.8432C2.63303 19.8909 2.39357 20.0368 2.22861 20.252C2.06366 20.4673 1.98512 20.7364 2.00842 21.0066C2.03171 21.2768 2.15517 21.5285 2.35454 21.7123C2.55391 21.8962 2.81579 21.9988 3.08698 22.0002Z" fill="#ED0226"/>
<path opacity="0.5" d="M11.75 10C11.75 9.80109 11.829 9.61032 11.9697 9.46967C12.1103 9.32902 12.3011 9.25 12.5 9.25H15.5C15.6989 9.25 15.8897 9.32902 16.0303 9.46967C16.171 9.61032 16.25 9.80109 16.25 10C16.25 10.1989 16.171 10.3897 16.0303 10.5303C15.8897 10.671 15.6989 10.75 15.5 10.75H12.5C12.3011 10.75 12.1103 10.671 11.9697 10.5303C11.829 10.3897 11.75 10.1989 11.75 10ZM7.53 13.47C7.67045 13.6106 7.74934 13.8012 7.74934 14C7.74934 14.1988 7.67045 14.3894 7.53 14.53L7.202 14.859L7.117 14.944C6.623 15.439 6.232 15.83 5.724 16.041C5.215 16.251 4.663 16.251 3.964 16.251L3.844 16.25H3C2.80109 16.25 2.61032 16.171 2.46967 16.0303C2.32902 15.8897 2.25 15.6989 2.25 15.5C2.25 15.3011 2.32902 15.1103 2.46967 14.9697C2.61032 14.829 2.80109 14.75 3 14.75H3.843C4.722 14.75 4.953 14.737 5.15 14.655C5.348 14.573 5.52 14.419 6.141 13.798L6.47 13.47C6.61063 13.3295 6.80125 13.2507 7 13.2507C7.19875 13.2507 7.38937 13.3295 7.53 13.47Z" fill="#ED0226"/>
</svg>
