<svg width="33" height="33" viewBox="0 0 33 33" fill="none" xmlns="http://www.w3.org/2000/svg">
<path d="M16.5999 19.5C19.9136 19.5 22.5999 16.8137 22.5999 13.5C22.5999 10.1863 19.9136 7.5 16.5999 7.5C13.2861 7.5 10.5999 10.1863 10.5999 13.5C10.5999 15.2377 11.3386 16.8029 12.5191 17.8986C11.6455 17.7505 10.6272 17.4396 9.73405 16.9632C8.70082 16.4122 7.98095 15.7256 7.71424 14.9388C7.63897 14.4703 7.59985 13.9897 7.59985 13.5C7.59985 8.52944 11.6293 4.5 16.5999 4.5C21.5704 4.5 25.5999 8.52944 25.5999 13.5C25.5999 16.2779 24.3414 18.7618 22.3634 20.4127C23.2607 20.7315 24.0972 21.137 24.8506 21.634C26.604 22.7909 27.8799 24.4347 28.3742 26.517C28.6293 27.5917 27.7044 28.5 26.5999 28.5C19.9332 28.5 13.2665 28.5 6.59985 28.5C5.49528 28.5 4.57037 27.5917 4.8255 26.517C5.31983 24.4347 6.59575 22.7909 8.34915 21.634C9.10247 21.137 9.93899 20.7315 10.8363 20.4127C10.0983 19.7968 9.46055 19.0649 8.95089 18.2451L9.02816 18.2868C10.5396 19.0929 12.3479 19.5 13.5999 19.5H16.5999Z" fill="#181C21"/>
</svg>
