<svg width="33" height="33" viewBox="0 0 33 33" fill="none" xmlns="http://www.w3.org/2000/svg">
<path d="M16.5999 3.16669C17.9185 3.16669 19.2074 3.55768 20.3037 4.29022C21.4001 5.02277 22.2545 6.06396 22.7591 7.28213C23.2637 8.5003 23.3957 9.84075 23.1385 11.134C22.8813 12.4272 22.2463 13.615 21.314 14.5474C20.3816 15.4797 19.1937 16.1147 17.9005 16.3719C16.6073 16.6292 15.2669 16.4971 14.0487 15.9926C12.8305 15.488 11.7893 14.6335 11.0568 13.5372C10.3243 12.4408 9.93327 11.1519 9.93327 9.83335L9.93993 9.54402C10.0145 7.82769 10.7487 6.20639 11.9896 5.01823C13.2304 3.83008 14.882 3.16679 16.5999 3.16669ZM19.2666 19.1667C21.0347 19.1667 22.7304 19.8691 23.9806 21.1193C25.2309 22.3696 25.9333 24.0652 25.9333 25.8334V27.1667C25.9333 27.8739 25.6523 28.5522 25.1522 29.0523C24.6521 29.5524 23.9738 29.8334 23.2666 29.8334H9.93327C9.22602 29.8334 8.54775 29.5524 8.04765 29.0523C7.54755 28.5522 7.2666 27.8739 7.2666 27.1667V25.8334C7.2666 24.0652 7.96898 22.3696 9.21922 21.1193C10.4695 19.8691 12.1652 19.1667 13.9333 19.1667H19.2666Z" fill="#181C21"/>
</svg>
