<svg width="32" height="32" viewBox="0 0 32 32" fill="none" xmlns="http://www.w3.org/2000/svg">
<path d="M17.374 2.52398C17.0027 2.17291 16.511 1.97729 16 1.97729C15.489 1.97729 14.9973 2.17291 14.626 2.52398L4.938 11.68C4.64136 11.9607 4.40516 12.299 4.24387 12.6742C4.08258 13.0494 3.9996 13.4536 4 13.862V25.002C4.00053 25.7973 4.31684 26.5598 4.87939 27.122C5.44194 27.6842 6.2047 28 7 28H10C10.7957 28 11.5587 27.6839 12.1213 27.1213C12.6839 26.5587 13 25.7956 13 25V20C13 19.7348 13.1054 19.4804 13.2929 19.2929C13.4804 19.1053 13.7348 19 14 19H18C18.2652 19 18.5196 19.1053 18.7071 19.2929C18.8946 19.4804 19 19.7348 19 20V25C19 25.7956 19.3161 26.5587 19.8787 27.1213C20.4413 27.6839 21.2044 28 22 28H25C25.7957 28 26.5587 27.6839 27.1213 27.1213C27.6839 26.5587 28 25.7956 28 25V13.86C27.9999 13.4518 27.9164 13.0479 27.7548 12.673C27.5932 12.2982 27.3568 11.9603 27.06 11.68L17.374 2.52398Z" fill="#181C21"/>
</svg>
