<svg width="32" height="32" viewBox="0 0 32 32" fill="none" xmlns="http://www.w3.org/2000/svg">
<circle cx="16" cy="16" r="16" fill="#FFA699"/>
<circle cx="16" cy="16.0001" r="13.3333" fill="#ED0226"/>
<path d="M21.0556 12.1113C22.1294 12.1113 23 11.2407 23 10.1669C23 9.09297 22.1294 8.22241 21.0556 8.22241C19.9817 8.22241 19.1111 9.09297 19.1111 10.1669C19.1111 11.2407 19.9817 12.1113 21.0556 12.1113Z" stroke="white" stroke-width="1.5"/>
<path d="M17.8667 23.7779V23.0313C17.8578 22.1897 17.6539 21.3616 17.271 20.612C16.8882 19.8625 16.3368 19.212 15.6601 18.7115C15.629 18.6881 15.6134 18.6765 15.6018 18.6664C15.4266 18.5281 15.2832 18.3537 15.1814 18.1551C15.0795 17.9565 15.0217 17.7383 15.0116 17.5153C15.0016 17.2923 15.0396 17.0698 15.1232 16.8629C15.2068 16.6559 15.3339 16.4694 15.496 16.3159L15.5504 16.2661L16.3593 15.5304C17.6255 14.38 17.2405 12.3002 15.6469 11.6804C15.3644 11.5703 15.0629 11.5171 14.7598 11.5238C14.4567 11.5304 14.1579 11.5969 13.8805 11.7192L13.4745 11.8981C13.0545 12.0825 12.8453 12.175 12.6408 12.2769C12.3001 12.4457 11.9688 12.6347 11.6491 12.8408C11.457 12.9652 11.2703 13.0975 10.897 13.3635L9.77777 14.1615" stroke="white" stroke-width="1.5" stroke-linecap="round"/>
<path opacity="0.5" d="M13.6667 19.8891L13.4644 20.131C12.919 20.7855 12.2364 21.3121 11.465 21.6735C10.6935 22.035 9.85195 22.2224 9 22.2225M19.1111 16.0002C20.1324 16.2556 21.2009 16.2556 22.2222 16.0002" stroke="white" stroke-width="1.5" stroke-linecap="round"/>
</svg>
