<svg width="332" height="73" viewBox="0 0 332 73" fill="none" xmlns="http://www.w3.org/2000/svg">
<path d="M1.00175 67.238L33.05 54.2184L58.5123 47.1456C59.5597 46.8546 60.6418 46.7071 61.7289 46.7071H72.5097C76.6254 46.7071 80.4549 48.8133 82.6591 52.289L89.403 62.9237C91.1513 65.6806 93.9458 67.6076 97.144 68.2618L110.308 70.9545C112.818 71.4679 115.427 71.1658 117.753 70.0921L133.702 62.7313L147.222 54.2184L159.904 47.6588C161.121 47.029 162.222 46.1955 163.159 45.1944L174.437 33.1381C175.641 31.851 177.114 30.8444 178.75 30.1898L184.114 28.0445C185.545 27.472 186.853 26.6295 187.966 25.5629L194.812 19.0016C197.05 16.8574 200.029 15.6604 203.128 15.6604H212.32H223.142C224.595 15.6604 226.036 15.3969 227.395 14.8827L241.017 9.72839C242.888 9.02056 244.552 7.85704 245.859 6.3433L246.877 5.16492C250.651 0.795582 256.998 -0.273198 261.994 2.61942L271.047 7.86077C271.952 8.38458 272.785 9.02421 273.524 9.76346L290.938 27.1777L302.956 36.6921L311.082 43.758C313.269 45.6598 316.07 46.7071 318.968 46.7071H330.998" stroke="#FED27F" stroke-width="2" stroke-linecap="round"/>
</svg>
